<?xml version="1.0" encoding="utf-8"?>
<!-- Generator: Adobe Illustrator 27.2.0, SVG Export Plug-In . SVG Version: 6.00 Build 0)  -->
<svg version="1.1" id="Layer_1" xmlns="http://www.w3.org/2000/svg" xmlns:xlink="http://www.w3.org/1999/xlink" x="0px" y="0px"
	 viewBox="0 0 709.2 346.5" style="enable-background:new 0 0 709.2 346.5;" xml:space="preserve">
<style type="text/css">
	.st0{display:none;}
	.st1{display:inline;}
	.st2{opacity:0.61;}
	.st3{fill:#FFFFFF;}
	.st4{display:inline;opacity:0.61;}
	.st5{opacity:0.35;}
	.st6{fill:#EAC93D;}
	.st7{fill:#ED0A46;}
	.st8{fill:#C4003D;}
	.st9{fill:#E52560;}
	.st10{fill:#FF3976;}
	.st11{fill:#F9B058;}
	.st12{fill:#0C5587;}
	.st13{fill:#EA972A;}
	.st14{fill:#F79826;}
	.st15{fill:#1B7BBC;}
	.st16{fill:#0865B2;}
	.st17{fill:#D3780B;}
	.st18{fill:#4CA4E0;}
	.st19{fill:#396810;}
	.st20{fill:#589B1E;}
	.st21{fill:#8BC658;}
	.st22{fill:#699944;}
	.st23{fill:#402C33;}
	.st24{fill:#E5067D;}
	.st25{fill:#B20869;}
	.st26{fill:#F4E9CF;}
	.st27{fill:#9F4535;}
	.st28{fill:#BACF37;}
	.st29{fill:#387F2E;}
	.st30{fill:#90C898;}
	.st31{fill:#B60937;}
	.st32{fill:#534D7D;}
	.st33{fill:#096433;}
	.st34{fill:#F2EA63;}
	.st35{fill:#B10E37;}
	.st36{fill:#EB6238;}
	.st37{fill:#2C2E81;}
	.st38{fill:#FDCE17;}
	.st39{fill:#0F7DB7;}
	.st40{fill:#534E7E;}
	.st41{fill:#BFE83F;}
	.st42{fill:#06B3DA;}
	.st43{fill:#ED358D;}
	.st44{fill:#3DBFA0;}
	.st45{fill:#258C71;}
	.st46{fill:#71EAC7;}
	.st47{fill:#F7F7F7;}
	.st48{fill:#EFD935;}
	.st49{fill:#067DB9;}
	.st50{fill:#45B8E5;}
	.st51{fill:#11B2F2;}
	.st52{fill:#603E37;}
	.st53{fill:#FDCE17;stroke:#E2DCE0;stroke-width:0.6026;stroke-miterlimit:10;}
	.st54{fill:#E85296;stroke:#E2DCE0;stroke-width:0.6026;stroke-miterlimit:10;}
	.st55{fill:#E6F1E6;}
	.st56{fill:#E5087D;}
	.st57{fill-rule:evenodd;clip-rule:evenodd;fill:#E20813;}
	.st58{fill-rule:evenodd;clip-rule:evenodd;fill:#EB6238;}
	.st59{fill:#F2F2F2;}
	.st60{fill:#A3A3A3;}
	.st61{fill:#EACED7;}
	.st62{fill:#232121;}
	.st63{display:none;fill:#FFFFFF;}
</style>
<g id="watermark_1_" class="st0">
	<g class="st1">
		<g id="watermark" class="st2">
			<g>
				<g>
					<g>
						<g>
							<polygon class="st3" points="130.6,461.2 125,474 122.1,474 116.6,461.2 119.8,461.2 123.7,470.3 127.6,461.2 							"/>
						</g>
						<g>
							<path class="st3" d="M140.3,469.7h-7.5c0.3,1.2,1.3,2,2.8,2c1,0,1.8-0.3,2.5-1l1.5,1.7c-0.9,1-2.3,1.6-4.1,1.6
								c-3.4,0-5.6-2.1-5.6-5.1c0-3,2.3-5.1,5.3-5.1c2.9,0,5.1,1.9,5.1,5.1C140.4,469.2,140.4,469.5,140.3,469.7 M132.8,468.1h4.9
								c-0.2-1.2-1.1-2.1-2.4-2.1C134,466,133,466.8,132.8,468.1"/>
						</g>
						<g>
							<path class="st3" d="M141.6,468.9c0-3,2.3-5.1,5.5-5.1c2.1,0,3.7,0.9,4.4,2.5l-2.2,1.2c-0.5-0.9-1.3-1.4-2.2-1.4
								c-1.4,0-2.6,1-2.6,2.7s1.1,2.7,2.6,2.7c0.9,0,1.7-0.4,2.2-1.4l2.2,1.2c-0.7,1.6-2.3,2.5-4.4,2.5
								C143.9,474,141.6,471.9,141.6,468.9"/>
						</g>
						<g>
							<path class="st3" d="M159.7,473.4c-0.6,0.4-1.4,0.6-2.3,0.6c-2.3,0-3.7-1.2-3.7-3.5v-4.1h-1.5v-2.2h1.5v-2.4h2.9v2.4h2.5v2.2
								h-2.5v4c0,0.8,0.5,1.3,1.2,1.3c0.4,0,0.8-0.1,1.2-0.4L159.7,473.4z"/>
						</g>
					</g>
					<g>
						<path class="st3" d="M179.3,464v2.6c-0.2,0-0.4,0-0.6,0c-1.6,0-2.6,0.9-2.6,2.8v4.7h-2.9v-9.9h2.7v1.3
							C176.6,464.5,177.8,464,179.3,464"/>
					</g>
					<g>
						<path class="st3" d="M180.1,472.5l1-2.2c1.1,0.8,2.7,1.3,4.2,1.3c1.8,0,2.5-0.6,2.5-1.4c0-2.4-7.5-0.8-7.5-5.5
							c0-2.2,1.8-4,5.4-4c1.6,0,3.3,0.4,4.5,1.1l-0.9,2.3c-1.2-0.7-2.4-1-3.6-1c-1.8,0-2.4,0.7-2.4,1.5c0,2.4,7.5,0.7,7.5,5.5
							c0,2.1-1.8,4-5.5,4C183.3,474,181.3,473.4,180.1,472.5"/>
					</g>
					<g>
						<path class="st3" d="M202.3,469.7h-7.5c0.3,1.2,1.3,2,2.8,2c1,0,1.8-0.3,2.5-1l1.5,1.7c-0.9,1-2.3,1.6-4.1,1.6
							c-3.4,0-5.6-2.1-5.6-5.1c0-3,2.3-5.1,5.3-5.1c2.9,0,5.1,1.9,5.1,5.1C202.3,469.2,202.3,469.5,202.3,469.7 M194.8,468.1h4.9
							c-0.2-1.2-1.1-2.1-2.4-2.1C195.9,466,195,466.8,194.8,468.1"/>
					</g>
					<g>
						<path class="st3" d="M213.8,469.7h-7.5c0.3,1.2,1.3,2,2.8,2c1,0,1.8-0.3,2.5-1l1.5,1.7c-0.9,1-2.3,1.6-4.1,1.6
							c-3.4,0-5.6-2.1-5.6-5.1c0-3,2.3-5.1,5.3-5.1c2.9,0,5.1,1.9,5.1,5.1C213.9,469.2,213.9,469.5,213.8,469.7 M206.3,468.1h4.9
							c-0.2-1.2-1.1-2.1-2.4-2.1C207.5,466,206.5,466.8,206.3,468.1"/>
					</g>
					<g>
						<polygon class="st3" points="220,470.1 218.7,471.5 218.7,474 215.8,474 215.8,460.4 218.7,460.4 218.7,468.1 222.8,464.1 
							226.3,464.1 222.1,468.3 226.6,474 223.2,474 						"/>
					</g>
					<g>
						<path class="st3" d="M173.4,475.4L173.4,475.4l-2.9-2.9c-0.4,0.5-1,0.9-1.5,1.3c-0.1,0.1-0.2,0.1-0.3,0.2l3,3
							c0.5,0.5,1.2,0.5,1.7,0C173.9,476.6,173.9,475.8,173.4,475.4"/>
					</g>
					<g>
						<path class="st3" d="M166.8,463.2c0.2-0.2,0.5-0.3,0.8-0.3c0,0,0.1,0,0.1,0c-0.2-0.2-0.5-0.2-0.8-0.2c-0.4,0-0.7,0.2-1,0.5
							c-0.1,0-0.1,0-0.2,0c0-0.1,0.1-0.2,0.1-0.3c0-0.2-0.1-0.4-0.3-0.5c0.1,0.1,0.1,0.3,0.1,0.4c0,0.1,0,0.2-0.1,0.3
							c-2.8,0.2-5,2.5-5,5.4c0,3,2.4,5.4,5.4,5.4c3,0,5.4-2.4,5.4-5.4C171.4,465.9,169.4,463.6,166.8,463.2 M164.8,464.7
							c0.4,0,0.8,0.1,1.2,0.3c0.4-0.2,0.8-0.4,1.3-0.4c0.7,0,1.3,0.3,1.8,0.8c-0.4-0.4-1-0.6-1.6-0.6c-0.4,0-0.9,0.1-1.2,0.3
							c-0.1,0-0.2,0.1-0.2,0.1c-0.1,0-0.1-0.1-0.2-0.1c-0.4-0.2-0.8-0.3-1.3-0.3c-0.3,0-0.6,0.1-0.9,0.2
							C164,464.8,164.4,464.7,164.8,464.7 M168.6,469.1c0.1,0.3,0.2,0.6,0.2,1c0,1.5-1.2,2.8-2.8,2.8s-2.8-1.2-2.8-2.8
							c0-0.3,0.1-0.7,0.2-1c-0.6-0.4-1-1.1-1-1.8c0-1.2,1-2.2,2.2-2.2c0.6,0,1.1,0.2,1.5,0.6c0.4-0.4,0.9-0.6,1.5-0.6
							c1.2,0,2.2,1,2.2,2.2C169.6,468,169.2,468.7,168.6,469.1"/>
					</g>
					<g>
						<path class="st3" d="M168.5,467.1c0,0.5-0.4,0.9-0.9,0.9s-0.9-0.4-0.9-0.9s0.4-0.9,0.9-0.9c0.1,0,0.2,0,0.3,0
							c0,0.1,0,0.1,0,0.2c0,0.3,0.2,0.5,0.5,0.5c0.1,0,0.1,0,0.1,0C168.5,466.9,168.5,467,168.5,467.1"/>
					</g>
					<g>
						<path class="st3" d="M165.1,467.1c0,0.4-0.3,0.7-0.7,0.7s-0.7-0.3-0.7-0.7s0.3-0.7,0.7-0.7c0.1,0,0.1,0,0.2,0c0,0,0,0.1,0,0.2
							c0,0.2,0.2,0.4,0.4,0.4c0,0,0.1,0,0.1,0C165.1,467,165.1,467,165.1,467.1"/>
					</g>
					<g>
						<g>
							<g>
								<rect x="159.7" y="467.8" class="st3" width="0.6" height="0.6"/>
							</g>
							<g>
								<rect x="171.7" y="467.8" class="st3" width="0.6" height="0.6"/>
							</g>
							<g>
								<path class="st3" d="M172,468.1h-0.1c0-3.2-2.6-5.9-5.9-5.9s-5.9,2.6-5.9,5.9H160c0-1.6,0.6-3.1,1.8-4.3s2.7-1.8,4.3-1.8
									c1.6,0,3.1,0.6,4.3,1.8C171.4,465,172,466.5,172,468.1"/>
							</g>
						</g>
						<g>
							<rect x="165.7" y="461.8" class="st3" width="0.6" height="0.6"/>
						</g>
						<g>
							<rect x="161.8" y="462.1" class="st3" width="8.4" height="0.1"/>
						</g>
						<g>
							<path class="st3" d="M162,462.1c0,0.1-0.1,0.2-0.2,0.2s-0.2-0.1-0.2-0.2s0.1-0.2,0.2-0.2C161.9,462,162,462,162,462.1"/>
						</g>
						<g>
							<path class="st3" d="M170.4,462.1c0,0.1-0.1,0.2-0.2,0.2s-0.2-0.1-0.2-0.2s0.1-0.2,0.2-0.2C170.3,462,170.4,462,170.4,462.1"
								/>
						</g>
					</g>
				</g>
				<g>
					<path class="st3" d="M231.2,473.4c0,1.6-2.4,1.6-2.4,0C228.8,471.9,231.2,471.9,231.2,473.4z"/>
				</g>
				<g>
					<g>
						<g>
							<path class="st3" d="M78.6,466.5l1.8,6.1l1.9-6.1h2.2l-2.8,8.1h-2.3l-0.8-2.4l-0.7-2.7l-0.7,2.7l-0.8,2.4h-2.3l-2.8-8.1h2.2
								l1.9,6.1l1.8-6.1H78.6z"/>
						</g>
						<g>
							<path class="st3" d="M93.5,466.5l1.8,6.1l1.9-6.1h2.2l-2.8,8.1h-2.3l-0.8-2.4l-0.7-2.7l-0.7,2.7l-0.8,2.4h-2.3l-2.8-8.1h2.2
								l1.9,6.1l1.8-6.1H93.5z"/>
						</g>
						<g>
							<path class="st3" d="M108.5,466.5l1.8,6.1l1.9-6.1h2.2l-2.8,8.1h-2.3l-0.8-2.4l-0.7-2.7l-0.7,2.7l-0.8,2.4h-2.3l-2.8-8.1h2.2
								l1.9,6.1l1.8-6.1H108.5z"/>
						</g>
					</g>
					<g>
						<path class="st3" d="M117.7,473.5c0,1.6-2.4,1.6-2.4,0C115.4,472,117.7,472,117.7,473.5z"/>
					</g>
					<g>
						<path class="st3" d="M239.5,473.4c-0.9,0.9-1.9,1.3-3.1,1.3c-2.3,0-4.3-1.4-4.3-4.3s2-4.3,4.3-4.3c1.1,0,2,0.3,2.9,1.2
							l-1.3,1.3c-0.5-0.4-1.1-0.6-1.6-0.6c-1.3,0-2.3,1-2.3,2.4c0,1.5,1,2.4,2.3,2.4c0.6,0,1.3-0.2,1.8-0.7L239.5,473.4z"/>
					</g>
					<g>
						<path class="st3" d="M248.6,470.5c0,2.3-1.6,4.2-4.2,4.2s-4.2-1.9-4.2-4.2c0-2.3,1.6-4.2,4.2-4.2
							C247,466.3,248.6,468.2,248.6,470.5z M242.2,470.5c0,1.2,0.7,2.4,2.2,2.4s2.2-1.1,2.2-2.4c0-1.2-0.9-2.4-2.2-2.4
							C243,468.1,242.2,469.3,242.2,470.5z"/>
					</g>
					<g>
						<path class="st3" d="M255.4,474.7v-4.3c0-1.1-0.6-2-1.7-2c-1.1,0-1.7,1-1.7,2v4.3h-2v-8.1h1.9l0.1,1c0.4-0.8,1.4-1.1,2.1-1.1
							c1,0,1.9,0.4,2.4,1.5c0.7-1.1,1.7-1.5,2.7-1.5c2.3,0,3.4,1.4,3.4,3.8v4.4h-2v-4.4c0-1.1-0.4-2-1.5-2c-1.1,0-1.8,0.9-1.8,2v4.3
							L255.4,474.7L255.4,474.7z"/>
					</g>
				</g>
			</g>
		</g>
		<g class="st2">
			<g>
				<g>
					<path class="st3" d="M262.8,431.3c0-1.2-1-2.1-2.2-2.1c-0.9,0-0.8,0.1-0.8-0.9c0-1.1,0-2.2,0-3.3c0-0.4-0.1-0.7-0.4-1
						c-2.3-2.7-4.7-5.3-7-8c-0.1-0.1-0.3-0.2-0.4-0.4c-6.2,0-12.4,0-18.6,0c-0.8,0.3-1.1,0.9-1.1,1.7c0,3.7,0,7.5,0,11.2
						c0,0.6,0,0.6-0.5,0.6c-1.5-0.1-2.5,1-2.5,2.5c0,3.5,0,7,0,10.4c0,1.6,0.9,2.4,2.5,2.4c0.6,0,0.6,0,0.6,0.6c0,2.2,0,4.4,0,6.7
						c0,1.2,0.6,1.8,1.8,1.8c8,0,16,0,24,0c1.2,0,1.8-0.6,1.8-1.7c0-2.3,0-4.5,0-6.8c0-0.5,0-0.5,0.5-0.5c0.3,0,0.5,0,0.8-0.1
						c1-0.2,1.7-1,1.7-2.1C262.8,438.7,262.8,435,262.8,431.3z M234.4,417.2c5.3,0,10.7,0,16,0c0.5,0,0.6,0,0.6,0.6
						c0,2.2,0,4.5,0,6.7c0,0.8,0.2,1.1,1.1,1.1c1.9,0,3.8,0,5.7,0c0.5,0,0.5,0,0.5,0.5c0,0.9,0,1.8,0,2.7c0,0.5,0,0.5-0.5,0.5
						c-3.9,0-7.8,0-11.7,0c-3.9,0-7.8,0-11.6,0c-0.5,0-0.6,0-0.6-0.6c0-3.6,0-7.2,0-10.9C233.8,417.2,233.8,417.2,234.4,417.2z
						 M257.7,451.6c-3.9,0-7.8,0-11.6,0c-3.9,0-7.7,0-11.6,0c-0.6,0-0.6,0-0.6-0.6c0-2,0-4,0-6c0-0.5,0-0.5,0.5-0.5
						c7.8,0,15.6,0,23.4,0c0.5,0,0.5,0,0.5,0.5c0,2,0,4,0,6C258.2,451.6,258.2,451.6,257.7,451.6z"/>
				</g>
				<g>
					<g>
						<rect x="244.2" y="417.1" class="st3" width="1.8" height="1.1"/>
					</g>
					<g>
						<rect x="242.5" y="418.1" class="st3" width="1.8" height="1.1"/>
					</g>
					<g>
						<rect x="244.2" y="419.2" class="st3" width="1.8" height="1.1"/>
					</g>
					<g>
						<rect x="242.5" y="420.2" class="st3" width="1.8" height="1.1"/>
					</g>
					<g>
						<rect x="244.2" y="421.3" class="st3" width="1.8" height="1.1"/>
					</g>
					<g>
						<rect x="242.5" y="422.3" class="st3" width="1.8" height="1.1"/>
					</g>
					<g>
						<rect x="244.2" y="423.4" class="st3" width="1.8" height="1.1"/>
					</g>
					<g>
						<rect x="242.5" y="424.4" class="st3" width="1.8" height="1.1"/>
					</g>
					<g>
						<rect x="244.2" y="425.5" class="st3" width="1.8" height="1.1"/>
					</g>
					<g>
						<rect x="242.5" y="426.5" class="st3" width="1.8" height="1.1"/>
					</g>
					<g>
						<rect x="244.2" y="427.6" class="st3" width="1.8" height="1.1"/>
					</g>
					<g>
						<rect x="242.5" y="428.6" class="st3" width="1.8" height="1.1"/>
					</g>
				</g>
			</g>
			<g>
				<path class="st3" d="M104.5,431.3c0-1.2-1-2.1-2.2-2.1c-0.9,0-0.8,0.1-0.8-0.9c0-1.1,0-2.2,0-3.3c0-0.4-0.1-0.7-0.4-1
					c-2.3-2.7-4.7-5.3-7-8c-0.1-0.1-0.3-0.2-0.4-0.4c-6.2,0-12.4,0-18.6,0c-0.8,0.3-1.1,0.9-1.1,1.7c0,3.7,0,7.5,0,11.2
					c0,0.6,0,0.6-0.6,0.6c-1.5-0.1-2.5,1-2.5,2.5c0,3.5,0,7,0,10.4c0,1.6,0.9,2.4,2.4,2.4c0.6,0,0.6,0,0.6,0.6c0,2.2,0,4.4,0,6.7
					c0,1.2,0.6,1.8,1.8,1.8c8,0,16,0,24,0c1.2,0,1.8-0.6,1.8-1.7c0-2.3,0-4.5,0-6.8c0-0.5,0-0.5,0.5-0.5c0.3,0,0.5,0,0.8-0.1
					c1-0.2,1.7-1,1.7-2.1C104.5,438.7,104.5,435,104.5,431.3z M76,417.2c5.3,0,10.7,0,16,0c0.5,0,0.6,0,0.6,0.6c0,2.2,0,4.5,0,6.7
					c0,0.8,0.2,1.1,1.1,1.1c1.9,0,3.8,0,5.7,0c0.5,0,0.5,0,0.5,0.5c0,0.9,0,1.8,0,2.7c0,0.5,0,0.5-0.5,0.5c-3.9,0-7.8,0-11.7,0
					c-3.9,0-7.8,0-11.6,0c-0.6,0-0.6,0-0.6-0.6c0-3.6,0-7.2,0-10.9C75.5,417.2,75.5,417.2,76,417.2z M99.3,451.6
					c-3.9,0-7.8,0-11.6,0c-3.9,0-7.7,0-11.6,0c-0.6,0-0.6,0-0.6-0.6c0-2,0-4,0-6c0-0.5,0-0.5,0.5-0.5c7.8,0,15.6,0,23.4,0
					c0.5,0,0.5,0,0.5,0.5c0,2,0,4,0,6C99.9,451.6,99.8,451.6,99.3,451.6z"/>
			</g>
			<g>
				<path class="st3" d="M76.6,440.7v-7.9h2.8c0.4,0,0.7,0.1,1.1,0.2s0.6,0.3,0.9,0.5c0.2,0.2,0.4,0.5,0.6,0.8
					c0.1,0.3,0.2,0.6,0.2,1c0,0.4-0.1,0.7-0.2,1s-0.3,0.6-0.6,0.8c-0.2,0.2-0.5,0.4-0.9,0.5s-0.7,0.2-1.1,0.2h-1.3v2.9L76.6,440.7
					L76.6,440.7z M79.4,436.4c0.4,0,0.7-0.1,0.9-0.3c0.2-0.2,0.3-0.5,0.3-0.8c0-0.1,0-0.3-0.1-0.4s-0.1-0.2-0.2-0.3
					c-0.1-0.1-0.2-0.2-0.4-0.2c-0.1-0.1-0.3-0.1-0.5-0.1h-1.3v2.2L79.4,436.4L79.4,436.4z"/>
				<path class="st3" d="M83.1,432.8h1.7l3.2,5.3h0.1l-0.1-1.5v-3.8h1.5v7.9H88l-3.4-5.6h-0.1l0.1,1.5v4.1h-1.5L83.1,432.8
					L83.1,432.8z"/>
				<path class="st3" d="M94.8,436.3h3.9c0,0.1,0,0.2,0.1,0.3c0,0.1,0,0.2,0,0.4c0,0.5-0.1,1-0.2,1.4s-0.4,0.8-0.7,1.2
					c-0.4,0.4-0.8,0.7-1.3,0.9c-0.5,0.2-1.1,0.3-1.7,0.3c-0.6,0-1.1-0.1-1.6-0.3c-0.5-0.2-0.9-0.5-1.3-0.9c-0.4-0.4-0.7-0.8-0.9-1.3
					s-0.3-1.1-0.3-1.6c0-0.6,0.1-1.1,0.3-1.6s0.5-0.9,0.9-1.3c0.4-0.4,0.8-0.7,1.3-0.9s1-0.3,1.6-0.3c0.6,0,1.2,0.1,1.7,0.3
					s0.9,0.5,1.3,0.9l-1,1c-0.3-0.3-0.5-0.5-0.9-0.6c-0.3-0.1-0.7-0.2-1.1-0.2c-0.4,0-0.7,0.1-1,0.2c-0.3,0.1-0.6,0.3-0.9,0.5
					c-0.2,0.2-0.4,0.5-0.6,0.9c-0.1,0.3-0.2,0.7-0.2,1.1c0,0.4,0.1,0.8,0.2,1.1c0.1,0.3,0.3,0.6,0.6,0.9c0.2,0.2,0.5,0.4,0.9,0.5
					c0.3,0.1,0.7,0.2,1,0.2c0.4,0,0.8-0.1,1.1-0.2c0.3-0.1,0.5-0.3,0.7-0.5c0.1-0.1,0.3-0.3,0.4-0.5c0.1-0.2,0.2-0.4,0.2-0.7h-2.5
					L94.8,436.3L94.8,436.3z"/>
			</g>
			<g>
				<path class="st3" d="M140.8,431.3c0-1.2-1-2.1-2.2-2.1c-0.9,0-0.8,0.1-0.8-0.9c0-1.1,0-2.2,0-3.3c0-0.4-0.1-0.7-0.4-1
					c-2.3-2.7-4.7-5.3-7-8c-0.1-0.1-0.3-0.2-0.4-0.4c-6.2,0-12.4,0-18.6,0c-0.8,0.3-1.1,0.9-1.1,1.7c0,3.7,0,7.5,0,11.2
					c0,0.6,0,0.6-0.6,0.6c-1.5-0.1-2.5,1-2.5,2.5c0,3.5,0,7,0,10.4c0,1.6,0.9,2.4,2.4,2.4c0.6,0,0.6,0,0.6,0.6c0,2.2,0,4.4,0,6.7
					c0,1.2,0.6,1.8,1.8,1.8c8,0,16,0,24,0c1.2,0,1.8-0.6,1.8-1.7c0-2.3,0-4.5,0-6.8c0-0.5,0-0.5,0.5-0.5c0.3,0,0.5,0,0.8-0.1
					c1-0.2,1.7-1,1.7-2.1C140.9,438.7,140.9,435,140.8,431.3z M112.4,417.2c5.3,0,10.7,0,16,0c0.5,0,0.6,0,0.6,0.6
					c0,2.2,0,4.5,0,6.7c0,0.8,0.2,1.1,1.1,1.1c1.9,0,3.8,0,5.7,0c0.5,0,0.5,0,0.5,0.5c0,0.9,0,1.8,0,2.7c0,0.5,0,0.5-0.5,0.5
					c-3.9,0-7.8,0-11.7,0c-3.9,0-7.8,0-11.6,0c-0.6,0-0.6,0-0.6-0.6c0-3.6,0-7.2,0-10.9C111.8,417.2,111.9,417.2,112.4,417.2z
					 M135.7,451.6c-3.9,0-7.8,0-11.6,0c-3.9,0-7.7,0-11.6,0c-0.6,0-0.6,0-0.6-0.6c0-2,0-4,0-6c0-0.5,0-0.5,0.5-0.5
					c7.8,0,15.6,0,23.4,0c0.5,0,0.5,0,0.5,0.5c0,2,0,4,0,6C136.2,451.6,136.2,451.6,135.7,451.6z"/>
			</g>
			<g>
				<path class="st3" d="M121.9,432.8h1.7l3,7.9H125l-0.7-1.9h-3l-0.7,1.9H119L121.9,432.8z M123.8,437.4l-0.7-2l-0.3-1h-0.1l-0.3,1
					l-0.7,2H123.8z"/>
				<path class="st3" d="M128.2,434.5c-0.1,0-0.2,0-0.4-0.1s-0.2-0.1-0.3-0.2c-0.1-0.1-0.2-0.2-0.2-0.3c0-0.1-0.1-0.2-0.1-0.4
					s0-0.3,0.1-0.4c0-0.1,0.1-0.2,0.2-0.3c0.1-0.1,0.2-0.2,0.3-0.2c0.1,0,0.2-0.1,0.4-0.1c0.3,0,0.5,0.1,0.7,0.3
					c0.2,0.2,0.3,0.4,0.3,0.7s-0.1,0.5-0.3,0.7C128.6,434.4,128.4,434.5,128.2,434.5z M127.4,440.7v-5.4h1.4v5.4H127.4z"/>
			</g>
			<g>
				<path class="st3" d="M177.9,431.3c0-1.2-1-2.1-2.2-2.1c-0.9,0-0.8,0.1-0.8-0.9c0-1.1,0-2.2,0-3.3c0-0.4-0.1-0.7-0.4-1
					c-2.3-2.7-4.7-5.3-7-8c-0.1-0.1-0.3-0.2-0.4-0.4c-6.2,0-12.4,0-18.6,0c-0.8,0.3-1.1,0.9-1.1,1.7c0,3.7,0,7.5,0,11.2
					c0,0.6,0,0.6-0.6,0.6c-1.5-0.1-2.5,1-2.5,2.5c0,3.5,0,7,0,10.4c0,1.6,0.9,2.4,2.4,2.4c0.6,0,0.6,0,0.6,0.6c0,2.2,0,4.4,0,6.7
					c0,1.2,0.6,1.8,1.8,1.8c8,0,16,0,24,0c1.2,0,1.8-0.6,1.8-1.7c0-2.3,0-4.5,0-6.8c0-0.5,0-0.5,0.5-0.5c0.3,0,0.5,0,0.8-0.1
					c1-0.2,1.7-1,1.7-2.1C177.9,438.7,177.9,435,177.9,431.3z M149.4,417.2c5.3,0,10.7,0,16,0c0.5,0,0.6,0,0.6,0.6
					c0,2.2,0,4.5,0,6.7c0,0.8,0.2,1.1,1.1,1.1c1.9,0,3.8,0,5.7,0c0.5,0,0.5,0,0.5,0.5c0,0.9,0,1.8,0,2.7c0,0.5,0,0.5-0.5,0.5
					c-3.9,0-7.8,0-11.7,0c-3.9,0-7.8,0-11.6,0c-0.6,0-0.6,0-0.6-0.6c0-3.6,0-7.2,0-10.9C148.9,417.2,148.9,417.2,149.4,417.2z
					 M172.7,451.6c-3.9,0-7.8,0-11.6,0c-3.9,0-7.7,0-11.6,0c-0.6,0-0.6,0-0.6-0.6c0-2,0-4,0-6c0-0.5,0-0.5,0.5-0.5
					c7.8,0,15.6,0,23.4,0c0.5,0,0.5,0,0.5,0.5c0,2,0,4,0,6C173.3,451.6,173.3,451.6,172.7,451.6z"/>
			</g>
			<g>
				<path class="st3" d="M153.2,440.8c-0.3,0-0.7,0-1-0.1c-0.3-0.1-0.6-0.2-0.8-0.4c-0.3-0.2-0.5-0.4-0.7-0.7
					c-0.2-0.3-0.3-0.6-0.5-1l1.4-0.6c0.1,0.4,0.3,0.7,0.5,1c0.3,0.3,0.6,0.4,1,0.4c0.2,0,0.3,0,0.4-0.1c0.1,0,0.3-0.1,0.4-0.2
					s0.2-0.2,0.3-0.3c0.1-0.1,0.1-0.3,0.1-0.4c0-0.1,0-0.3-0.1-0.4c-0.1-0.1-0.1-0.2-0.3-0.3c-0.1-0.1-0.3-0.2-0.5-0.3
					c-0.2-0.1-0.4-0.2-0.7-0.3l-0.5-0.2c-0.2-0.1-0.4-0.2-0.6-0.3c-0.2-0.1-0.4-0.3-0.6-0.5s-0.3-0.4-0.4-0.6
					c-0.1-0.2-0.2-0.5-0.2-0.8c0-0.3,0.1-0.6,0.2-0.9c0.1-0.3,0.3-0.5,0.5-0.7c0.2-0.2,0.5-0.4,0.8-0.5s0.7-0.2,1-0.2
					c0.4,0,0.7,0.1,1,0.2s0.5,0.2,0.7,0.4c0.2,0.2,0.4,0.3,0.5,0.5c0.1,0.2,0.2,0.4,0.3,0.6l-1.3,0.6c-0.1-0.2-0.2-0.4-0.4-0.6
					c-0.2-0.2-0.5-0.3-0.8-0.3c-0.3,0-0.6,0.1-0.8,0.2s-0.3,0.3-0.3,0.6c0,0.2,0.1,0.4,0.3,0.6c0.2,0.2,0.5,0.3,1,0.5l0.5,0.2
					c0.3,0.1,0.6,0.2,0.9,0.4c0.3,0.1,0.5,0.3,0.7,0.5c0.2,0.2,0.3,0.4,0.4,0.7c0.1,0.3,0.1,0.5,0.1,0.9c0,0.4-0.1,0.8-0.2,1.1
					c-0.2,0.3-0.4,0.5-0.6,0.7c-0.3,0.2-0.5,0.3-0.9,0.4C153.8,440.8,153.5,440.8,153.2,440.8z"/>
				<path class="st3" d="M156.3,432.8h1.6l1.6,4.8l0.3,1h0.1l0.3-1l1.7-4.8h1.6l-2.9,7.9h-1.6L156.3,432.8z"/>
				<path class="st3" d="M167.9,436.3h3.9c0,0.1,0,0.2,0.1,0.3s0,0.2,0,0.4c0,0.5-0.1,1-0.2,1.4c-0.2,0.4-0.4,0.8-0.7,1.2
					c-0.4,0.4-0.8,0.7-1.3,0.9c-0.5,0.2-1.1,0.3-1.7,0.3c-0.6,0-1.1-0.1-1.6-0.3s-0.9-0.5-1.3-0.9c-0.4-0.4-0.7-0.8-0.9-1.3
					c-0.2-0.5-0.3-1.1-0.3-1.6c0-0.6,0.1-1.1,0.3-1.6s0.5-0.9,0.9-1.3c0.4-0.4,0.8-0.7,1.3-0.9c0.5-0.2,1-0.3,1.6-0.3
					c0.6,0,1.2,0.1,1.7,0.3s0.9,0.5,1.3,0.9l-1,1c-0.3-0.3-0.5-0.5-0.9-0.6c-0.3-0.1-0.7-0.2-1.1-0.2c-0.4,0-0.7,0.1-1,0.2
					c-0.3,0.1-0.6,0.3-0.8,0.5c-0.2,0.2-0.4,0.5-0.6,0.9c-0.1,0.3-0.2,0.7-0.2,1.1c0,0.4,0.1,0.8,0.2,1.1c0.1,0.3,0.3,0.6,0.6,0.9
					c0.2,0.2,0.5,0.4,0.9,0.5c0.3,0.1,0.7,0.2,1,0.2c0.4,0,0.8-0.1,1.1-0.2s0.5-0.3,0.7-0.5c0.1-0.1,0.3-0.3,0.4-0.5
					c0.1-0.2,0.2-0.4,0.2-0.7h-2.5L167.9,436.3L167.9,436.3z"/>
			</g>
			<g>
				<path class="st3" d="M214.1,431.3c0-1.2-1-2.1-2.2-2.1c-0.9,0-0.8,0.1-0.8-0.9c0-1.1,0-2.2,0-3.3c0-0.4-0.1-0.7-0.4-1
					c-2.3-2.7-4.7-5.3-7-8c-0.1-0.1-0.3-0.2-0.4-0.4c-6.2,0-12.4,0-18.6,0c-0.8,0.3-1.1,0.9-1.1,1.7c0,3.7,0,7.5,0,11.2
					c0,0.6,0,0.6-0.5,0.6c-1.5-0.1-2.5,1-2.5,2.5c0,3.5,0,7,0,10.4c0,1.6,0.9,2.4,2.5,2.4c0.6,0,0.6,0,0.6,0.6c0,2.2,0,4.4,0,6.7
					c0,1.2,0.6,1.8,1.8,1.8c8,0,16,0,24,0c1.2,0,1.8-0.6,1.8-1.7c0-2.3,0-4.5,0-6.8c0-0.5,0-0.5,0.5-0.5c0.3,0,0.5,0,0.8-0.1
					c1-0.2,1.7-1,1.7-2.1C214.1,438.7,214.1,435,214.1,431.3z M185.7,417.2c5.3,0,10.7,0,16,0c0.5,0,0.6,0,0.6,0.6
					c0,2.2,0,4.5,0,6.7c0,0.8,0.2,1.1,1.1,1.1c1.9,0,3.8,0,5.7,0c0.5,0,0.5,0,0.5,0.5c0,0.9,0,1.8,0,2.7c0,0.5,0,0.5-0.5,0.5
					c-3.9,0-7.8,0-11.7,0c-3.9,0-7.8,0-11.6,0c-0.5,0-0.6,0-0.6-0.6c0-3.6,0-7.2,0-10.9C185.1,417.2,185.1,417.2,185.7,417.2z
					 M209,451.6c-3.9,0-7.8,0-11.6,0c-3.9,0-7.7,0-11.6,0c-0.6,0-0.6,0-0.6-0.6c0-2,0-4,0-6c0-0.5,0-0.5,0.5-0.5
					c7.8,0,15.6,0,23.4,0c0.5,0,0.5,0,0.5,0.5c0,2,0,4,0,6C209.5,451.6,209.5,451.6,209,451.6z"/>
			</g>
			<g>
				<path class="st3" d="M189.8,434.2v1.8h3.2v1.4h-3.2v1.8h3.5v1.4h-5v-7.9h5v1.4L189.8,434.2L189.8,434.2z"/>
				<path class="st3" d="M194.7,440.7v-7.9h2.8c0.4,0,0.7,0.1,1.1,0.2s0.6,0.3,0.9,0.5s0.4,0.5,0.6,0.8c0.1,0.3,0.2,0.6,0.2,1
					c0,0.4-0.1,0.7-0.2,1c-0.1,0.3-0.3,0.6-0.6,0.8s-0.5,0.4-0.9,0.5s-0.7,0.2-1.1,0.2h-1.3v2.9L194.7,440.7L194.7,440.7z
					 M197.5,436.4c0.4,0,0.7-0.1,0.9-0.3c0.2-0.2,0.3-0.5,0.3-0.8c0-0.1,0-0.3-0.1-0.4s-0.1-0.2-0.2-0.3c-0.1-0.1-0.2-0.2-0.4-0.2
					c-0.1-0.1-0.3-0.1-0.5-0.1h-1.3v2.2L197.5,436.4L197.5,436.4z"/>
				<path class="st3" d="M203.6,440.8c-0.3,0-0.7,0-1-0.1c-0.3-0.1-0.6-0.2-0.8-0.4c-0.3-0.2-0.5-0.4-0.7-0.7
					c-0.2-0.3-0.3-0.6-0.5-1l1.4-0.6c0.1,0.4,0.3,0.7,0.5,1c0.3,0.3,0.6,0.4,1,0.4c0.2,0,0.3,0,0.4-0.1c0.1,0,0.3-0.1,0.4-0.2
					c0.1-0.1,0.2-0.2,0.3-0.3c0.1-0.1,0.1-0.3,0.1-0.4c0-0.1,0-0.3-0.1-0.4c-0.1-0.1-0.1-0.2-0.3-0.3c-0.1-0.1-0.3-0.2-0.5-0.3
					c-0.2-0.1-0.4-0.2-0.7-0.3l-0.5-0.2c-0.2-0.1-0.4-0.2-0.6-0.3c-0.2-0.1-0.4-0.3-0.6-0.5s-0.3-0.4-0.4-0.6
					c-0.1-0.2-0.2-0.5-0.2-0.8c0-0.3,0.1-0.6,0.2-0.9c0.1-0.3,0.3-0.5,0.5-0.7c0.2-0.2,0.5-0.4,0.8-0.5c0.3-0.1,0.7-0.2,1-0.2
					c0.4,0,0.7,0.1,1,0.2s0.5,0.2,0.7,0.4c0.2,0.2,0.4,0.3,0.5,0.5c0.1,0.2,0.2,0.4,0.3,0.6l-1.3,0.6c-0.1-0.2-0.2-0.4-0.4-0.6
					c-0.2-0.2-0.5-0.3-0.8-0.3c-0.3,0-0.6,0.1-0.8,0.2c-0.2,0.2-0.3,0.3-0.3,0.6c0,0.2,0.1,0.4,0.3,0.6s0.5,0.3,1,0.5l0.5,0.2
					c0.3,0.1,0.6,0.2,0.9,0.4c0.3,0.1,0.5,0.3,0.7,0.5c0.2,0.2,0.3,0.4,0.4,0.7c0.1,0.3,0.1,0.5,0.1,0.9c0,0.4-0.1,0.8-0.2,1.1
					c-0.2,0.3-0.4,0.5-0.6,0.7c-0.3,0.2-0.5,0.3-0.9,0.4C204.3,440.8,203.9,440.8,203.6,440.8z"/>
			</g>
			<g>
				<path class="st3" d="M238.2,439.2l4-5h-3.8v-1.4h5.6v1.5l-4,5h4v1.4h-5.8L238.2,439.2L238.2,439.2z"/>
				<path class="st3" d="M245.2,432.8h1.5v7.9h-1.5V432.8z"/>
				<path class="st3" d="M248.3,440.7v-7.9h2.8c0.4,0,0.7,0.1,1.1,0.2s0.6,0.3,0.9,0.5s0.4,0.5,0.6,0.8c0.1,0.3,0.2,0.6,0.2,1
					c0,0.4-0.1,0.7-0.2,1c-0.1,0.3-0.3,0.6-0.6,0.8s-0.5,0.4-0.9,0.5s-0.7,0.2-1.1,0.2h-1.3v2.9L248.3,440.7L248.3,440.7z
					 M251.1,436.4c0.4,0,0.7-0.1,0.9-0.3c0.2-0.2,0.3-0.5,0.3-0.8c0-0.1,0-0.3-0.1-0.4s-0.1-0.2-0.2-0.3c-0.1-0.1-0.2-0.2-0.4-0.2
					c-0.1-0.1-0.3-0.1-0.5-0.1h-1.3v2.2L251.1,436.4L251.1,436.4z"/>
			</g>
		</g>
		<g class="st2">
			<path class="st3" d="M217,433.3h9.1v2.2H217V433.3z M217,437.1h9.1v2.2H217V437.1z"/>
		</g>
	</g>
	<g class="st4">
		<path class="st3" d="M73.6,478.9h1.6c1.3,0,2.1,0.8,2.1,2c0,1.2-0.9,2-2.1,2h-1.6V478.9z M75.2,482.5c1,0,1.7-0.7,1.7-1.6
			s-0.7-1.6-1.7-1.6H74v3.2H75.2z"/>
		<path class="st3" d="M82,480.9c0-1.1,0.9-2,2.1-2c1.2,0,2.1,0.9,2.1,2c0,1.2-0.9,2-2.1,2C82.8,482.9,82,482,82,480.9z M85.7,480.9
			c0-0.9-0.7-1.6-1.7-1.6c-1,0-1.7,0.7-1.7,1.6c0,0.9,0.7,1.6,1.7,1.6C85,482.5,85.7,481.8,85.7,480.9z"/>
		<path class="st3" d="M96.4,478.9l-1.3,3.9h-0.4l-1.2-3.4l-1.2,3.4h-0.4l-1.3-3.9H91l1.1,3.4l1.2-3.4h0.4l1.2,3.4l1.2-3.4H96.4z"/>
		<path class="st3" d="M104.6,478.9v3.9h-0.3l-2.5-3.2v3.2h-0.4v-3.9h0.3l2.5,3.2v-3.2H104.6z"/>
		<path class="st3" d="M109.9,478.9h0.4v3.6h2.2v0.4h-2.6L109.9,478.9L109.9,478.9z"/>
		<path class="st3" d="M116.9,480.9c0-1.1,0.9-2,2.1-2c1.2,0,2.1,0.9,2.1,2c0,1.2-0.9,2-2.1,2C117.8,482.9,116.9,482,116.9,480.9z
			 M120.6,480.9c0-0.9-0.7-1.6-1.7-1.6c-1,0-1.7,0.7-1.7,1.6c0,0.9,0.7,1.6,1.7,1.6C119.9,482.5,120.6,481.8,120.6,480.9z"/>
		<path class="st3" d="M128.5,481.8h-2.2l-0.5,1.1h-0.4l1.8-3.9h0.4l1.8,3.9h-0.4L128.5,481.8z M128.3,481.4l-0.9-2.1l-0.9,2.1
			H128.3z"/>
		<path class="st3" d="M134.1,478.9h1.6c1.3,0,2.1,0.8,2.1,2c0,1.2-0.9,2-2.1,2h-1.6V478.9z M135.7,482.5c1,0,1.7-0.7,1.7-1.6
			s-0.7-1.6-1.7-1.6h-1.2v3.2H135.7z"/>
		<path class="st3" d="M150.9,481.8h-2.2l-0.5,1.1h-0.4l1.8-3.9h0.4l1.8,3.9h-0.4L150.9,481.8z M150.7,481.4l-0.9-2.1l-0.9,2.1
			H150.7z"/>
		<path class="st3" d="M156.5,478.9h0.4v3.6h2.2v0.4h-2.6L156.5,478.9L156.5,478.9z"/>
		<path class="st3" d="M163.9,478.9h0.4v3.6h2.2v0.4h-2.6L163.9,478.9L163.9,478.9z"/>
		<path class="st3" d="M177.3,479.2v1.6h2v0.4h-2v1.7h-0.4v-3.9h2.7v0.4L177.3,479.2L177.3,479.2z"/>
		<path class="st3" d="M184.5,478.9h0.4v3.9h-0.4V478.9z"/>
		<path class="st3" d="M190.3,478.9h0.4v3.6h2.2v0.4h-2.6L190.3,478.9L190.3,478.9z"/>
		<path class="st3" d="M200.5,482.5v0.4h-2.8v-3.9h2.7v0.4h-2.3v1.4h2v0.4h-2v1.5H200.5z"/>
		<path class="st3" d="M211.5,479.2v1.6h2v0.4h-2v1.7h-0.4v-3.9h2.7v0.4L211.5,479.2L211.5,479.2z"/>
		<path class="st3" d="M218.3,480.9c0-1.1,0.9-2,2.1-2c1.2,0,2.1,0.9,2.1,2c0,1.2-0.9,2-2.1,2C219.2,482.9,218.3,482,218.3,480.9z
			 M222.1,480.9c0-0.9-0.7-1.6-1.7-1.6c-1,0-1.7,0.7-1.7,1.6c0,0.9,0.7,1.6,1.7,1.6C221.4,482.5,222.1,481.8,222.1,480.9z"/>
		<path class="st3" d="M230.2,482.8l-0.9-1.3c-0.1,0-0.2,0-0.3,0h-1.1v1.3h-0.4v-3.9h1.5c1,0,1.6,0.5,1.6,1.4c0,0.6-0.3,1.1-0.9,1.2
			l1,1.4L230.2,482.8L230.2,482.8z M230.2,480.2c0-0.6-0.4-1-1.2-1h-1v2h1C229.7,481.2,230.2,480.9,230.2,480.2z"/>
		<path class="st3" d="M239.7,478.9v3.9h-0.4v-3.2l-1.6,2.7h-0.2l-1.6-2.6v3.1h-0.4v-3.9h0.3l1.7,2.9l1.7-2.9L239.7,478.9
			L239.7,478.9z"/>
		<path class="st3" d="M247.6,481.8h-2.2l-0.5,1.1h-0.4l1.8-3.9h0.4l1.8,3.9H248L247.6,481.8z M247.4,481.4l-0.9-2.1l-0.9,2.1H247.4
			z"/>
		<path class="st3" d="M253.8,479.2h-1.4v-0.4h3.2v0.4h-1.4v3.6h-0.4L253.8,479.2L253.8,479.2z"/>
		<path class="st3" d="M259.9,482.3l0.2-0.3c0.3,0.3,0.8,0.5,1.3,0.5c0.7,0,1.1-0.3,1.1-0.7c0-1.1-2.4-0.4-2.4-1.9
			c0-0.6,0.5-1.1,1.5-1.1c0.4,0,0.9,0.1,1.2,0.4l-0.1,0.3c-0.3-0.2-0.7-0.3-1.1-0.3c-0.7,0-1,0.3-1,0.7c0,1.1,2.4,0.4,2.4,1.9
			c0,0.6-0.5,1.1-1.5,1.1C260.8,482.9,260.2,482.6,259.9,482.3z"/>
	</g>
</g>
<g>
	<g class="st5">
		
			<rect x="144.8" y="156.9" transform="matrix(0.7071 -0.7071 0.7071 0.7071 -77.6075 170.3504)" class="st6" width="44" height="44"/>
		<rect x="51.6" y="63.6" transform="matrix(0.7071 -0.7071 0.7071 0.7071 -38.982 77.101)" class="st7" width="44" height="44"/>
		
			<rect x="51.6" y="125.8" transform="matrix(0.7071 -0.7071 0.7071 0.7071 -82.9405 95.3088)" class="st8" width="44" height="44"/>
		
			<rect x="82.7" y="94.7" transform="matrix(0.7071 -0.7071 0.7071 0.7071 -51.8565 108.1838)" class="st9" width="44" height="44"/>
		
			<rect x="113.8" y="63.6" transform="matrix(0.7071 -0.7071 0.7071 0.7071 -20.7739 121.0592)" class="st10" width="44" height="44"/>
		
			<rect x="51.6" y="188" transform="matrix(0.7071 -0.7071 0.7071 0.7071 -126.899 113.5167)" class="st11" width="44" height="44"/>
		
			<rect x="82.7" y="156.9" transform="matrix(0.7071 -0.7071 0.7071 0.7071 -95.8153 126.3918)" class="st6" width="44" height="44"/>
		
			<rect x="113.8" y="125.8" transform="matrix(0.7071 -0.7071 0.7071 0.7071 -64.7329 139.2675)" class="st6" width="44" height="44"/>
		
			<rect x="144.8" y="94.7" transform="matrix(0.7071 -0.7071 0.7071 0.7071 -33.6489 152.1425)" class="st6" width="44" height="44"/>
		
			<rect x="175.9" y="63.6" transform="matrix(0.7071 -0.7071 0.7071 0.7071 -2.5662 165.0179)" class="st12" width="44" height="44"/>
		
			<rect x="51.6" y="250.1" transform="matrix(0.7071 -0.7071 0.7071 0.7071 -170.8573 131.7239)" class="st13" width="44" height="44"/>
		
			<rect x="82.7" y="219" transform="matrix(0.7071 -0.7071 0.7071 0.7071 -139.7738 144.5997)" class="st14" width="44" height="44"/>
		
			<rect x="113.8" y="188" transform="matrix(0.7071 -0.7071 0.7071 0.7071 -108.6911 157.4752)" class="st6" width="44" height="44"/>
		
			<rect x="175.9" y="125.8" transform="matrix(0.7071 -0.7071 0.7071 0.7071 -46.5247 183.2258)" class="st6" width="44" height="44"/>
		<rect x="207" y="94.7" transform="matrix(0.7071 -0.7071 0.7071 0.7071 -15.441 196.1009)" class="st15" width="44" height="44"/>
		
			<rect x="238.1" y="63.6" transform="matrix(0.7071 -0.7071 0.7071 0.7071 15.6417 208.9765)" class="st16" width="44" height="44"/>
		
			<rect x="113.8" y="250.1" transform="matrix(0.7071 -0.7071 0.7071 0.7071 -152.6493 175.6824)" class="st17" width="44" height="44"/>
		
			<rect x="144.8" y="219" transform="matrix(0.7071 -0.7071 0.7071 0.7071 -121.5659 188.5582)" class="st6" width="44" height="44"/>
		
			<rect x="175.9" y="188" transform="matrix(0.7071 -0.7071 0.7071 0.7071 -90.4832 201.4337)" class="st6" width="44" height="44"/>
		
			<rect x="207" y="156.9" transform="matrix(0.7071 -0.7071 0.7071 0.7071 -59.3996 214.3088)" class="st6" width="44" height="44"/>
		
			<rect x="238.1" y="125.8" transform="matrix(0.7071 -0.7071 0.7071 0.7071 -28.3168 227.1843)" class="st18" width="44" height="44"/>
		
			<rect x="175.9" y="250.1" transform="matrix(0.7071 -0.7071 0.7071 0.7071 -134.4414 219.6409)" class="st19" width="44" height="44"/>
		
			<rect x="207" y="219" transform="matrix(0.7071 -0.7071 0.7071 0.7071 -103.3581 232.5167)" class="st20" width="44" height="44"/>
		
			<rect x="238.1" y="188" transform="matrix(0.7071 -0.7071 0.7071 0.7071 -72.2754 245.3922)" class="st21" width="44" height="44"/>
		
			<rect x="238.1" y="250.1" transform="matrix(0.7071 -0.7071 0.7071 0.7071 -116.2336 263.5994)" class="st22" width="44" height="44"/>
	</g>
	<g>
		<rect x="144.9" y="25" class="st23" width="44" height="44"/>
		<rect x="99.3" y="69" class="st24" width="44" height="44"/>
		<rect x="100.8" y="69.1" class="st25" width="2.2" height="44"/>
		<rect x="142.3" y="69.1" class="st25" width="2.2" height="44"/>
		<rect x="144.9" y="69" class="st26" width="44" height="44"/>
		<rect x="188.8" y="69" class="st27" width="44" height="44"/>
		<rect x="56.9" y="112.9" class="st28" width="44" height="44"/>
		<rect x="56.9" y="112.9" class="st29" width="2.1" height="44"/>
		<rect x="98.7" y="112.9" class="st29" width="2.1" height="44"/>
		<rect x="100.9" y="112.9" class="st30" width="44" height="44"/>
		<rect x="144.9" y="112.9" class="st31" width="44" height="44"/>
		<rect x="188.8" y="112.9" class="st32" width="44" height="44"/>
		<rect x="232.8" y="112.9" class="st33" width="44" height="44"/>
		<rect x="13" y="156.9" class="st34" width="44" height="44"/>
		<rect x="56.9" y="156.9" class="st26" width="44" height="44"/>
		<rect x="100.9" y="156.9" class="st35" width="44" height="44"/>
		<rect x="144.9" y="156.9" class="st34" width="44" height="44"/>
		<rect x="188.8" y="156.9" class="st36" width="44" height="44"/>
		<rect x="232.8" y="156.9" class="st34" width="44" height="44"/>
		<rect x="276.7" y="156.9" class="st37" width="44" height="44"/>
		<rect x="56.9" y="200.8" class="st38" width="44" height="44"/>
		<rect x="100.9" y="200.8" class="st26" width="44" height="44"/>
		<rect x="144.9" y="200.8" class="st39" width="44" height="44"/>
		<rect x="188.8" y="200.8" class="st40" width="44" height="44"/>
		<rect x="232.8" y="200.8" class="st37" width="44" height="44"/>
		<rect x="232.8" y="200.8" class="st41" width="1.6" height="44"/>
		<rect x="275.2" y="200.8" class="st41" width="1.6" height="44"/>
		<rect x="100.9" y="244.8" class="st34" width="44" height="44"/>
		<rect x="144.9" y="244.8" class="st42" width="44" height="44"/>
		<rect x="188.8" y="244.8" class="st34" width="44" height="44"/>
		<rect x="144.9" y="288.8" class="st28" width="44" height="44"/>
		<g>
			<path class="st28" d="M18.7,180.2l16.2,10.1l16.3-9.9l-16.3-10L18.7,180.2z M34.8,188.8l-13.9-8.7l13.9-8.4l14,8.6L34.8,188.8z"
				/>
			<path class="st28" d="M21.6,180.1l13.2,8.3l13.4-8.1l-13.4-8.2L21.6,180.1z M44.6,180.4l-9.7,5.9l-9.6-6l9.6-5.8L44.6,180.4z"/>
			<polygon class="st28" points="35,186 44.2,180.4 35,174.8 25.8,180.3 			"/>
			<path class="st28" d="M51.2,176.3v-9.5l-9.9,4.1v-4.4l-6.3,2.1l-6.2-2.1v4.2l-9.3-3.9v9.4l-3.9-2.2v12.2l3.9-2.2v9.9l9.3-3.9v4.1
				l6.2-1.7l6.3,1.7v-4.4l9.9,4.1V184l3.9,2.2v-12.2L51.2,176.3z M34.9,190.9l-17-10.7l17-10.3l17.2,10.5L34.9,190.9z"/>
		</g>
		<g>
			<path class="st42" d="M282.2,180.2l16.2,10.1l16.3-9.9l-16.3-10L282.2,180.2z M298.3,188.8l-13.9-8.7l13.9-8.4l14,8.6
				L298.3,188.8z"/>
			<path class="st42" d="M285.1,180.1l13.2,8.3l13.4-8.1l-13.4-8.2L285.1,180.1z M308.1,180.4l-9.7,5.9l-9.6-6l9.6-5.8L308.1,180.4z
				"/>
			<polygon class="st42" points="298.5,186 307.7,180.4 298.5,174.8 289.3,180.3 			"/>
			<path class="st42" d="M314.7,176.3v-9.5l-9.9,4.1v-4.4l-6.3,2.1l-6.2-2.1v4.2l-9.3-3.9v9.4l-3.9-2.2v12.2l3.9-2.2v9.9l9.3-3.9
				v4.1l6.2-1.7l6.3,1.7v-4.4l9.9,4.1V184l3.9,2.2v-12.2L314.7,176.3z M298.4,190.9l-17-10.7l17-10.3l17.2,10.5L298.4,190.9z"/>
		</g>
		<g>
			<g>
				
					<rect x="108.8" y="208.7" transform="matrix(0.7071 -0.7071 0.7071 0.7071 -121.4554 151.9346)" class="st43" width="27.8" height="27.8"/>
				
					<rect x="113.4" y="213.3" transform="matrix(0.7071 -0.7071 0.7071 0.7071 -121.4565 151.935)" class="st44" width="18.6" height="18.6"/>
				
					<rect x="118.2" y="218.1" transform="matrix(0.7071 -0.7071 0.7071 0.7071 -121.456 151.9348)" class="st45" width="8.9" height="8.9"/>
			</g>
			<g>
				
					<rect x="108.8" y="208.7" transform="matrix(0.7071 -0.7071 0.7071 0.7071 -121.4554 151.9346)" class="st43" width="27.8" height="27.8"/>
				
					<rect x="113.4" y="213.3" transform="matrix(0.7071 -0.7071 0.7071 0.7071 -121.4565 151.935)" class="st44" width="18.6" height="18.6"/>
				
					<rect x="118.2" y="218.1" transform="matrix(0.7071 -0.7071 0.7071 0.7071 -121.456 151.9348)" class="st45" width="8.9" height="8.9"/>
			</g>
			<g>
				<g>
					<rect x="103.9" y="214.1" class="st45" width="2.5" height="2.5"/>
					<rect x="104.6" y="214.8" class="st46" width="1.2" height="1.2"/>
				</g>
				<g>
					<rect x="106.7" y="211.2" class="st45" width="2.5" height="2.5"/>
					<rect x="107.4" y="211.9" class="st46" width="1.2" height="1.2"/>
				</g>
				<g>
					<rect x="109.5" y="208.4" class="st45" width="2.5" height="2.5"/>
					<rect x="110.1" y="209" class="st46" width="1.2" height="1.2"/>
				</g>
				<g>
					<rect x="112.3" y="205.5" class="st45" width="2.5" height="2.5"/>
					<rect x="112.9" y="206.1" class="st46" width="1.2" height="1.2"/>
				</g>
				<g>
					<rect x="115.1" y="202.6" class="st45" width="2.5" height="2.5"/>
					<rect x="115.7" y="203.2" class="st46" width="1.2" height="1.2"/>
				</g>
			</g>
			<g>
				<g>
					<rect x="128.5" y="239.3" class="st45" width="2.5" height="2.5"/>
					<rect x="129.2" y="240" class="st46" width="1.2" height="1.2"/>
				</g>
				<g>
					<rect x="131.3" y="236.4" class="st45" width="2.5" height="2.5"/>
					<rect x="132" y="237.1" class="st46" width="1.2" height="1.2"/>
				</g>
				<g>
					<rect x="134.1" y="233.5" class="st45" width="2.5" height="2.5"/>
					<rect x="134.8" y="234.2" class="st46" width="1.2" height="1.2"/>
				</g>
				<g>
					<rect x="136.9" y="230.6" class="st45" width="2.5" height="2.5"/>
					<rect x="137.6" y="231.3" class="st46" width="1.2" height="1.2"/>
				</g>
				<g>
					<rect x="139.7" y="227.8" class="st45" width="2.5" height="2.5"/>
					<rect x="140.4" y="228.4" class="st46" width="1.2" height="1.2"/>
				</g>
			</g>
			<g>
				<g>
					
						<rect x="139" y="213.8" transform="matrix(1.740085e-02 -0.9998 0.9998 1.740085e-02 -77.259 351.5148)" class="st45" width="2.5" height="2.5"/>
					
						<rect x="139.6" y="214.5" transform="matrix(1.750082e-02 -0.9998 0.9998 1.750082e-02 -77.2721 351.5201)" class="st46" width="1.2" height="1.2"/>
				</g>
				<g>
					
						<rect x="136.1" y="211" transform="matrix(1.740085e-02 -0.9998 0.9998 1.740085e-02 -77.2008 345.8799)" class="st45" width="2.5" height="2.5"/>
					
						<rect x="136.8" y="211.6" transform="matrix(1.740085e-02 -0.9998 0.9998 1.740085e-02 -77.201 345.9066)" class="st46" width="1.2" height="1.2"/>
				</g>
				<g>
					
						<rect x="133.3" y="208.1" transform="matrix(1.740085e-02 -0.9998 0.9998 1.740085e-02 -77.1428 340.2465)" class="st45" width="2.5" height="2.5"/>
					
						<rect x="134" y="208.8" transform="matrix(1.750082e-02 -0.9998 0.9998 1.750082e-02 -77.1552 340.2512)" class="st46" width="1.2" height="1.2"/>
				</g>
				<g>
					
						<rect x="130.5" y="205.3" transform="matrix(1.740085e-02 -0.9998 0.9998 1.740085e-02 -77.0847 334.6108)" class="st45" width="2.5" height="2.5"/>
					
						<rect x="131.1" y="205.9" transform="matrix(1.750082e-02 -0.9998 0.9998 1.750082e-02 -77.0968 334.6143)" class="st46" width="1.2" height="1.2"/>
				</g>
				<g>
					
						<rect x="127.6" y="202.4" transform="matrix(1.750082e-02 -0.9998 0.9998 1.750082e-02 -77.0385 328.9787)" class="st45" width="2.5" height="2.5"/>
					
						<rect x="128.3" y="203.1" transform="matrix(1.740085e-02 -0.9998 0.9998 1.740085e-02 -77.0267 328.9994)" class="st46" width="1.2" height="1.2"/>
				</g>
			</g>
			<g>
				<g>
					
						<rect x="114.2" y="239.3" transform="matrix(1.740085e-02 -0.9998 0.9998 1.740085e-02 -127.0834 351.7046)" class="st45" width="2.5" height="2.5"/>
					
						<rect x="114.8" y="239.9" transform="matrix(1.750082e-02 -0.9998 0.9998 1.750082e-02 -127.0974 351.7112)" class="st46" width="1.2" height="1.2"/>
				</g>
				<g>
					
						<rect x="111.3" y="236.4" transform="matrix(1.750082e-02 -0.9998 0.9998 1.750082e-02 -127.0385 346.0713)" class="st45" width="2.5" height="2.5"/>
					
						<rect x="112" y="237.1" transform="matrix(1.740085e-02 -0.9998 0.9998 1.740085e-02 -127.0284 346.0966)" class="st46" width="1.2" height="1.2"/>
				</g>
				<g>
					
						<rect x="108.5" y="233.6" transform="matrix(1.740085e-02 -0.9998 0.9998 1.740085e-02 -126.9673 340.4364)" class="st45" width="2.5" height="2.5"/>
					
						<rect x="109.1" y="234.2" transform="matrix(1.750082e-02 -0.9998 0.9998 1.750082e-02 -126.9806 340.4409)" class="st46" width="1.2" height="1.2"/>
				</g>
				<g>
					
						<rect x="105.6" y="230.7" transform="matrix(1.740085e-02 -0.9998 0.9998 1.740085e-02 -126.9091 334.8015)" class="st45" width="2.5" height="2.5"/>
					
						<rect x="106.3" y="231.4" transform="matrix(1.750082e-02 -0.9998 0.9998 1.750082e-02 -126.9221 334.8068)" class="st46" width="1.2" height="1.2"/>
				</g>
				<g>
					
						<rect x="102.8" y="227.9" transform="matrix(1.740085e-02 -0.9998 0.9998 1.740085e-02 -126.851 329.1669)" class="st45" width="2.5" height="2.5"/>
					
						<rect x="103.5" y="228.6" transform="matrix(1.750082e-02 -0.9998 0.9998 1.750082e-02 -126.8638 329.172)" class="st46" width="1.2" height="1.2"/>
				</g>
			</g>
		</g>
		<g>
			
				<rect x="197.3" y="77.3" transform="matrix(0.7071 -0.7071 0.7071 0.7071 -2.6128 176.0898)" class="st43" width="27.8" height="27.8"/>
			
				<rect x="201.9" y="81.9" transform="matrix(0.7071 -0.7071 0.7071 0.7071 -2.6126 176.0903)" class="st44" width="18.6" height="18.6"/>
			
				<rect x="206.8" y="86.7" transform="matrix(0.7071 -0.7071 0.7071 0.7071 -2.613 176.0904)" class="st45" width="8.9" height="8.9"/>
		</g>
		<g>
			
				<rect x="197.3" y="77.3" transform="matrix(0.7071 -0.7071 0.7071 0.7071 -2.6128 176.0898)" class="st30" width="27.8" height="27.8"/>
			
				<rect x="201.9" y="81.9" transform="matrix(0.7071 -0.7071 0.7071 0.7071 -2.6126 176.0903)" class="st34" width="18.6" height="18.6"/>
			
				<rect x="206.8" y="86.7" transform="matrix(0.7071 -0.7071 0.7071 0.7071 -2.613 176.0904)" class="st45" width="8.9" height="8.9"/>
			<g>
				<g>
					<rect x="192.5" y="82.7" class="st45" width="2.5" height="2.5"/>
					<rect x="193.1" y="83.4" class="st46" width="1.2" height="1.2"/>
				</g>
				<g>
					<rect x="195.3" y="79.9" class="st45" width="2.5" height="2.5"/>
					<rect x="195.9" y="80.5" class="st46" width="1.2" height="1.2"/>
				</g>
				<g>
					<rect x="198.1" y="77" class="st45" width="2.5" height="2.5"/>
					<rect x="198.7" y="77.6" class="st46" width="1.2" height="1.2"/>
				</g>
				<g>
					<rect x="200.9" y="74.1" class="st45" width="2.5" height="2.5"/>
					<rect x="201.5" y="74.7" class="st46" width="1.2" height="1.2"/>
				</g>
				<g>
					<rect x="203.7" y="71.2" class="st45" width="2.5" height="2.5"/>
					<rect x="204.3" y="71.9" class="st46" width="1.2" height="1.2"/>
				</g>
			</g>
			<g>
				<g>
					<rect x="217.1" y="107.9" class="st45" width="2.5" height="2.5"/>
					<rect x="217.8" y="108.6" class="st46" width="1.2" height="1.2"/>
				</g>
				<g>
					<rect x="219.9" y="105" class="st45" width="2.5" height="2.5"/>
					<rect x="220.6" y="105.7" class="st46" width="1.2" height="1.2"/>
				</g>
				<g>
					<rect x="222.7" y="102.1" class="st45" width="2.5" height="2.5"/>
					<rect x="223.4" y="102.8" class="st46" width="1.2" height="1.2"/>
				</g>
				<g>
					<rect x="225.5" y="99.3" class="st45" width="2.5" height="2.5"/>
					<rect x="226.2" y="99.9" class="st46" width="1.2" height="1.2"/>
				</g>
				<g>
					<rect x="228.3" y="96.4" class="st45" width="2.5" height="2.5"/>
					<rect x="229" y="97" class="st46" width="1.2" height="1.2"/>
				</g>
			</g>
			<g>
				<g>
					
						<rect x="227.6" y="82.4" transform="matrix(1.740085e-02 -0.9998 0.9998 1.740085e-02 141.1328 310.998)" class="st45" width="2.5" height="2.5"/>
					
						<rect x="228.2" y="83.1" transform="matrix(1.750082e-02 -0.9998 0.9998 1.750082e-02 141.124 311.0152)" class="st46" width="1.2" height="1.2"/>
				</g>
				<g>
					
						<rect x="224.7" y="79.6" transform="matrix(1.750082e-02 -0.9998 0.9998 1.750082e-02 141.1813 305.3767)" class="st45" width="2.5" height="2.5"/>
					
						<rect x="225.4" y="80.3" transform="matrix(1.740085e-02 -0.9998 0.9998 1.740085e-02 141.2027 305.3865)" class="st46" width="1.2" height="1.2"/>
				</g>
				<g>
					
						<rect x="221.9" y="76.8" transform="matrix(1.740085e-02 -0.9998 0.9998 1.740085e-02 141.2489 299.7288)" class="st45" width="2.5" height="2.5"/>
					
						<rect x="222.6" y="77.4" transform="matrix(1.740085e-02 -0.9998 0.9998 1.740085e-02 141.2608 299.7515)" class="st46" width="1.2" height="1.2"/>
				</g>
				<g>
					
						<rect x="219" y="73.9" transform="matrix(1.740085e-02 -0.9998 0.9998 1.740085e-02 141.3063 294.0928)" class="st45" width="2.5" height="2.5"/>
					
						<rect x="219.7" y="74.6" transform="matrix(1.750082e-02 -0.9998 0.9998 1.750082e-02 141.299 294.1108)" class="st46" width="1.2" height="1.2"/>
				</g>
				<g>
					
						<rect x="216.2" y="71.1" transform="matrix(1.740085e-02 -0.9998 0.9998 1.740085e-02 141.3651 288.4592)" class="st45" width="2.5" height="2.5"/>
					
						<rect x="216.9" y="71.7" transform="matrix(1.750082e-02 -0.9998 0.9998 1.750082e-02 141.3591 288.4755)" class="st46" width="1.2" height="1.2"/>
				</g>
			</g>
			<g>
				<g>
					
						<rect x="202.7" y="107.9" transform="matrix(1.740085e-02 -0.9998 0.9998 1.740085e-02 91.3071 311.1899)" class="st45" width="2.5" height="2.5"/>
					
						<rect x="203.4" y="108.6" transform="matrix(1.750082e-02 -0.9998 0.9998 1.750082e-02 91.2997 311.2045)" class="st46" width="1.2" height="1.2"/>
				</g>
				<g>
					
						<rect x="199.9" y="105" transform="matrix(1.740085e-02 -0.9998 0.9998 1.740085e-02 91.3653 305.5551)" class="st45" width="2.5" height="2.5"/>
					
						<rect x="200.6" y="105.7" transform="matrix(1.750082e-02 -0.9998 0.9998 1.750082e-02 91.359 305.5724)" class="st46" width="1.2" height="1.2"/>
				</g>
				<g>
					
						<rect x="197.1" y="102.2" transform="matrix(1.750082e-02 -0.9998 0.9998 1.750082e-02 91.4151 299.9335)" class="st45" width="2.5" height="2.5"/>
					
						<rect x="197.7" y="102.9" transform="matrix(1.740085e-02 -0.9998 0.9998 1.740085e-02 91.4341 299.9434)" class="st46" width="1.2" height="1.2"/>
				</g>
				<g>
					
						<rect x="194.2" y="99.4" transform="matrix(1.740085e-02 -0.9998 0.9998 1.740085e-02 91.4825 294.2868)" class="st45" width="2.5" height="2.5"/>
					
						<rect x="194.9" y="100" transform="matrix(1.750082e-02 -0.9998 0.9998 1.750082e-02 91.4744 294.2997)" class="st46" width="1.2" height="1.2"/>
				</g>
				<g>
					
						<rect x="191.4" y="96.5" transform="matrix(1.740085e-02 -0.9998 0.9998 1.740085e-02 91.5415 288.6511)" class="st45" width="2.5" height="2.5"/>
					
						<rect x="192.1" y="97.2" transform="matrix(1.750082e-02 -0.9998 0.9998 1.750082e-02 91.5332 288.6654)" class="st46" width="1.2" height="1.2"/>
				</g>
			</g>
		</g>
		<g>
			<path class="st36" d="M118.8,285c-6.8,0-15.7-8.9-15.8-18.4c-0.1-5.8,2.4-11.6,6.4-15.2c3.6-3.2,8.4-4.5,13.8-3.7
				c4.6,0.7,8,2.8,10.2,6.5c3.2,5.3,2.8,12.5,1.9,15.2c-1.7,4.7-6.6,10.1-15.2,9.7c-3-0.1-5.5-1.3-7.4-3.4c-3-3.3-3.7-8.3-3.6-9.6
				l0-0.1c0.5-7.6,4.6-12.1,11.2-12.2c3.7-0.1,6.4,1,8.2,3.2c2.3,2.9,2.2,7.2,1.4,10c-0.8,2.7-3.3,5.3-6.2,6.1
				c-2.2,0.6-4.4,0.2-6-1.4c-2.8-2.6-2.9-7.3-1.2-10.1c1.1-1.8,2.9-2.6,4.6-1.9c1.8,0.6,2.5,1.7,2.7,2.5c0.6,2-0.8,3.9-1,4.1
				c-0.4,0.6-1.2,0.7-1.8,0.2c-0.6-0.4-0.7-1.2-0.3-1.8c0.3-0.4,0.7-1.3,0.6-1.9c-0.1-0.3-0.5-0.6-1.1-0.9c-0.2-0.1-0.9-0.3-1.6,0.9
				c-1,1.7-1.2,5.1,0.7,6.9c1,0.9,2.2,1.2,3.6,0.8c2-0.6,3.9-2.4,4.4-4.3c0.5-1.8,0.9-5.5-0.9-7.8c-1.2-1.6-3.3-2.3-6.1-2.3
				c-6.6,0.1-8.4,5.4-8.7,9.8l0,0.1c0,0.5,0.4,4.8,3,7.7c1.5,1.6,3.3,2.5,5.6,2.6c9.4,0.3,12.4-7.2,12.7-8c0.6-1.7,1.3-8.1-1.6-13
				c-1.8-3-4.6-4.7-8.4-5.3c-4.7-0.7-8.6,0.4-11.7,3.1c-4.1,3.6-5.6,9.2-5.5,13.2c0.1,8,7.7,15.9,13.2,15.9c7.4,0,20-2.2,21-17.1
				c0-0.7,0.7-1.2,1.4-1.2c0.7,0,1.2,0.7,1.2,1.4C141.2,283.1,125.5,285,118.8,285z"/>
			<path class="st36" d="M141.6,259.6c0,0.4-0.3,0.8-0.8,0.8s-0.8-0.3-0.8-0.8c0-0.4,0.3-0.8,0.8-0.8
				C141.3,258.9,141.6,259.2,141.6,259.6z"/>
			<path class="st36" d="M140.6,257.6c0,0.2-0.2,0.4-0.4,0.4s-0.4-0.2-0.4-0.4s0.2-0.4,0.4-0.4S140.6,257.4,140.6,257.6z"/>
			<path class="st36" d="M142.2,261.2c0.5,0.5,0.5,1.2,0,1.7c-0.5,0.5-1.2,0.5-1.7,0c-0.5-0.5-0.5-1.2,0-1.7
				C140.9,260.8,141.7,260.8,142.2,261.2z"/>
		</g>
		<g>
			<path class="st36" d="M207,285c-6.8,0-15.7-8.9-15.8-18.4c-0.1-5.8,2.4-11.6,6.4-15.2c3.6-3.2,8.4-4.5,13.8-3.7
				c4.6,0.7,8,2.8,10.2,6.5c3.2,5.3,2.8,12.5,1.9,15.2c-1.7,4.7-6.6,10.1-15.2,9.7c-3-0.1-5.5-1.3-7.4-3.4c-3-3.3-3.7-8.3-3.6-9.6
				l0-0.1c0.5-7.6,4.6-12.1,11.2-12.2c3.7-0.1,6.4,1,8.2,3.2c2.3,2.9,2.2,7.2,1.4,10c-0.8,2.7-3.3,5.3-6.2,6.1
				c-2.2,0.6-4.4,0.2-6-1.4c-2.8-2.6-2.9-7.3-1.2-10.1c1.1-1.8,2.9-2.6,4.6-1.9c1.8,0.6,2.5,1.7,2.7,2.5c0.6,2-0.8,3.9-1,4.1
				c-0.4,0.6-1.2,0.7-1.8,0.2c-0.6-0.4-0.7-1.2-0.3-1.8c0.3-0.4,0.7-1.3,0.6-1.9c-0.1-0.3-0.5-0.6-1.1-0.9c-0.2-0.1-0.9-0.3-1.6,0.9
				c-1,1.7-1.2,5.1,0.7,6.9c1,0.9,2.2,1.2,3.6,0.8c2-0.6,3.9-2.4,4.4-4.3c0.5-1.8,0.9-5.5-0.9-7.8c-1.2-1.6-3.3-2.3-6.1-2.3
				c-6.6,0.1-8.4,5.4-8.7,9.8l0,0.1c0,0.5,0.4,4.8,3,7.7c1.5,1.6,3.3,2.5,5.6,2.6c9.4,0.3,12.4-7.2,12.7-8c0.6-1.7,1.3-8.1-1.6-13
				c-1.8-3-4.6-4.7-8.4-5.3c-4.7-0.7-8.6,0.4-11.7,3.1c-4.1,3.6-5.6,9.2-5.5,13.2c0.1,8,7.7,15.9,13.2,15.9c7.4,0,20-2.2,21-17.1
				c0-0.7,0.7-1.2,1.4-1.2c0.7,0,1.2,0.7,1.2,1.4C229.4,283.1,213.7,285,207,285z"/>
			<path class="st36" d="M229.8,259.6c0,0.4-0.3,0.8-0.8,0.8s-0.8-0.3-0.8-0.8c0-0.4,0.3-0.8,0.8-0.8S229.8,259.2,229.8,259.6z"/>
			<path class="st36" d="M228.9,257.6c0,0.2-0.2,0.4-0.4,0.4s-0.4-0.2-0.4-0.4s0.2-0.4,0.4-0.4S228.9,257.4,228.9,257.6z"/>
			<circle class="st36" cx="229.5" cy="262.1" r="1.2"/>
		</g>
		<polygon class="st47" points="230.4,195.4 192.4,195.4 192.4,191.2 228.1,191.2 228.1,186.6 193,186.6 193,182.1 228,182.1 
			228,178.2 192.7,178.2 192.7,173.3 228.1,173.3 228.1,169.4 192.7,169.4 192.7,164.6 228.4,164.6 228.4,160 190.8,160 
			190.8,159.7 228.8,159.7 228.8,165 193.1,165 193.1,169.1 228.5,169.1 228.5,173.7 193.1,173.7 193.1,177.8 228.4,177.8 
			228.4,182.4 193.4,182.4 193.4,186.2 228.5,186.2 228.5,191.6 192.8,191.6 192.8,195 230.4,195 		"/>
		<g>
			<path class="st48" d="M175.2,152.1h-16.5c-6.4,0-11.5-5.2-11.5-11.5v-27.7h39.5v27.7C186.7,146.9,181.5,152.1,175.2,152.1z"/>
			<path class="st24" d="M177.5,130.9c-1.4,1.4-1.9,3.4-0.9,4.3s2.9,0.5,4.3-0.9s1.9-3.4,0.9-4.3C180.9,129,179,129.4,177.5,130.9z"
				/>
			<path class="st24" d="M155.4,131c1.4,1.4,1.9,3.4,0.9,4.3c-0.9,0.9-2.9,0.5-4.3-0.9c-1.4-1.4-1.9-3.4-0.9-4.3
				C152.1,129.1,154,129.6,155.4,131z"/>
			<g>
				<path class="st49" d="M173.5,140.7c0,1.9-3.1,3.4-6.9,3.4s-6.9-1.5-6.9-3.4s3.1-3.4,6.9-3.4
					C170.4,137.3,173.5,138.8,173.5,140.7z"/>
				<ellipse class="st50" cx="166.6" cy="140.7" rx="3.1" ry="1.5"/>
			</g>
			<path class="st49" d="M148.5,119.9l1.5,0.1l-1.3,2.7c0,0,7-8.1,13.4-2.2C162.1,120.5,159.2,110.3,148.5,119.9z"/>
			<g>
				<rect x="164" y="115.2" class="st49" width="5.2" height="18.6"/>
				<path class="st49" d="M172.8,133.8h-12.6v-1.5c0-1.9,1.6-3.5,3.5-3.5h5.7c1.9,0,3.5,1.6,3.5,3.5L172.8,133.8L172.8,133.8z"/>
				<g>
					<polygon class="st49" points="156.6,125.6 152.6,123.2 156.4,120.7 160.2,123.2 					"/>
					<polygon class="st51" points="156.5,124.5 154.3,123.2 156.4,121.8 158.5,123.2 					"/>
				</g>
				<g>
					<polygon class="st49" points="176.9,125.8 173,123.4 176.8,120.9 180.5,123.4 					"/>
					<polygon class="st51" points="176.8,124.7 174.7,123.4 176.8,122 178.8,123.4 					"/>
				</g>
				<path class="st49" d="M184.6,119.9l-1.5,0.1l1.3,2.7c0,0-7-8.1-13.4-2.2C171,120.5,173.9,110.3,184.6,119.9z"/>
			</g>
		</g>
		<g>
			<path class="st52" d="M82.9,208.3l-3.8-4.2l0,0L82.9,208.3L82.9,208.3z M79.1,204.1C79.1,204.1,79.1,204.1,79.1,204.1
				C79.1,204.1,79.1,204.1,79.1,204.1L79.1,204.1L79.1,204.1L79.1,204.1z M83.1,204.5c6.1,3.5,7.8,8.4,8.3,11.7
				c0.7,4.3-1.1,9-4.7,9.6c-3.6,0.6-5.4-3-5.7-5c-0.3-2.2,0.6-4.5,1.9-6.1c0.7-0.9,1.7-2,3.1-3.1l-2.1-2.3c-1,0.6-1.8,1.7-2.1,2.6
				c0,0,0-0.8,0.1-1.5c0.2-0.8,0.5-1.5,0.7-1.8c0.1-0.2,0.2-0.3,0.3-0.4l-3.8-4.2l-3.8,4.2c0.1,0.1,0.2,0.3,0.3,0.4
				c0.2,0.3,0.5,0.9,0.7,1.8c0.2,0.6,0.1,1.5,0.1,1.5c-0.4-0.8-1.1-1.9-2.1-2.6l-2.1,2.3c1.4,1,2.4,2.2,3,3.1
				c1.3,1.6,2.2,3.9,1.9,6.1c-0.3,2-2.1,5.6-5.7,5c-3.5-0.6-5.4-5.2-4.7-9.6c0.5-3.4,2.3-8.3,8.4-11.7c-8.3,1.8-14.6,9.3-14.6,18.2
				c0,10.3,8.3,18.7,18.6,18.7c10.3,0,18.6-8.4,18.6-18.7C97.7,213.8,91.5,206.3,83.1,204.5L83.1,204.5z"/>
			<path class="st52" d="M82.9,208.3l-3.8-4.2l0,0 M79.1,204.1C79.1,204.1,79.1,204.1,79.1,204.1C79.1,204.1,79.1,204.1,79.1,204.1
				L79.1,204.1L79.1,204.1L79.1,204.1z M83.1,204.5c6.1,3.5,7.8,8.4,8.3,11.7c0.7,4.3-1.1,9-4.7,9.6c-3.6,0.6-5.4-3-5.7-5
				c-0.3-2.2,0.6-4.5,1.9-6.1c0.7-0.9,1.7-2,3.1-3.1l-2.1-2.3c-1,0.6-1.8,1.7-2.1,2.6c0,0,0-0.8,0.1-1.5c0.2-0.8,0.5-1.5,0.7-1.8
				c0.1-0.2,0.2-0.3,0.3-0.4l-3.8-4.2l-3.8,4.2c0.1,0.1,0.2,0.3,0.3,0.4c0.2,0.3,0.5,0.9,0.7,1.8c0.2,0.6,0.1,1.5,0.1,1.5
				c-0.4-0.8-1.1-1.9-2.1-2.6l-2.1,2.3c1.4,1,2.4,2.2,3,3.1c1.3,1.6,2.2,3.9,1.9,6.1c-0.3,2-2.1,5.6-5.7,5c-3.5-0.6-5.4-5.2-4.7-9.6
				c0.5-3.4,2.3-8.3,8.4-11.7c-8.3,1.8-14.6,9.3-14.6,18.2c0,10.3,8.3,18.7,18.6,18.7c10.3,0,18.6-8.4,18.6-18.7
				C97.7,213.8,91.5,206.3,83.1,204.5L83.1,204.5z"/>
		</g>
		<g id="l1_6_" transform="translate(-187.14286,-110.93358)">
			<path id="p1_6_" class="st42" d="M442.2,316.3c-9.3,0-16.9,7.5-16.9,16.9s7.5,16.9,16.9,16.9s16.8-7.5,16.8-16.9
				C459.1,323.8,451.5,316.3,442.2,316.3z M441.4,317.7C441.4,317.7,441.4,317.7,441.4,317.7l0.1,1.1c-1,0-1.9,0.2-2.8,0.4l0.3,1.1
				c-2.4,0.6-4.5,1.9-6.2,3.6l-0.8-0.8c-0.7,0.7-1.3,1.4-1.8,2.2l-1-0.6C431.8,320.7,436.3,317.9,441.4,317.7z M443,317.7
				c5.1,0.3,9.6,3,12.2,7.1l-1,0.6c-0.5-0.8-1.1-1.6-1.8-2.2l-0.8,0.8c-1.7-1.7-3.8-3-6.2-3.6l0.3-1.1c-0.9-0.2-1.9-0.4-2.8-0.4
				L443,317.7z M442.2,322.7c0.5,0,1,0,1.4,0.1L443,328c1.3,0.2,2.5,0.9,3.3,1.9l4.2-3.1c0.5,0.6,1.1,1.6,1.4,2.4l-4.8,2.1
				c0.2,0.6,0.4,1.2,0.4,1.9c0,0.7-0.1,1.3-0.3,1.9l4.8,2c-0.3,0.8-0.9,1.7-1.4,2.4l-4.2-3.1c-0.8,1-2,1.7-3.3,1.9l0.6,5.1
				c-0.8,0.1-1.9,0.1-2.8,0l0.6-5.1c-1.3-0.2-2.5-0.9-3.3-1.9l-4.1,3.1c-0.5-0.6-1.1-1.6-1.4-2.4l4.8-2c-0.2-0.6-0.3-1.2-0.3-1.9
				c0-0.7,0.1-1.3,0.4-1.9l-4.8-2c0.3-0.8,0.9-1.7,1.4-2.4l4.2,3.1c0.8-1,2-1.7,3.3-1.9l-0.6-5.2
				C441.2,322.7,441.7,322.7,442.2,322.7z M428.4,326.1l1,0.5c-0.4,0.8-0.8,1.7-1.1,2.7l1.1,0.3c-0.3,1.1-0.5,2.3-0.5,3.6
				c0,1.2,0.2,2.4,0.5,3.6l-1.1,0.3c0.3,0.9,0.6,1.8,1.1,2.7l-1,0.5c-1.1-2.1-1.7-4.5-1.7-7.1C426.7,330.6,427.4,328.2,428.4,326.1z
				 M456,326.1c1.1,2.1,1.7,4.5,1.7,7.1c0,2.5-0.6,4.9-1.7,7.1l-1-0.5c0.4-0.8,0.8-1.7,1.1-2.7l-1.1-0.3c0.3-1.1,0.5-2.3,0.5-3.6
				c0-1.2-0.2-2.4-0.5-3.6l1.1-0.3c-0.3-0.9-0.6-1.8-1.1-2.7L456,326.1z M430.2,340.9c0.5,0.8,1.1,1.6,1.8,2.2l0.8-0.8
				c1.7,1.7,3.8,3,6.2,3.6l-0.3,1.1c0.9,0.2,1.9,0.4,2.8,0.4l-0.1,1.1c-5.1-0.3-9.6-3-12.2-7.1L430.2,340.9z M454.3,340.9l1,0.6
				c-2.6,4.1-7.1,6.8-12.2,7.1l-0.1-1.1c1,0,1.9-0.2,2.8-0.4l-0.3-1.1c2.4-0.6,4.5-1.9,6.2-3.6l0.8,0.8
				C453.1,342.4,453.7,341.7,454.3,340.9z"/>
		</g>
		<g>
			<g>
				<path class="st53" d="M176.3,219.3l0.4-8.8c-0.7-2-5.6-3.7-5.6-3.7l-2,6.5h-2.4h-0.2h-2.2l-2-6.5c0,0-4.9,1.7-5.6,3.7l0.4,8.8
					c0,0-1.3,2.9-1,4.8c0.3,1.8,4.2,5.8,4.2,7.4s0,1.7,0,1.7l1.7,1l1.1-1.5h3.3h0.2h3.5l1.1,1.5l1.7-1c0,0,0,0,0-1.7
					s3.9-5.6,4.2-7.4C177.5,222.2,176.3,219.3,176.3,219.3z"/>
				<path class="st53" d="M173.1,234.8l-1.9,1.2l-1.3-1.8h-3.3h-0.1h-3.2L162,236l-1.9-1.2c0,0-0.1,1.5-0.6,2.2l2.1,1.8l2.2-1.7h2.6
					h0.1h2.7l2.2,1.7l2.1-1.8C173.2,236.4,173.1,234.8,173.1,234.8z"/>
			</g>
			<g>
				<path class="st54" d="M159.4,222.5l-1.8-0.9l0.3-1.8l0.2,0.1c1.2,0.5,6,1.1,6,1.1l0.1,0v1l-0.5,0.3l0,0L159.4,222.5z M158,221.5
					l1.6,0.8l4.1-0.1l0.3-0.2v-0.6c-0.7-0.1-4.4-0.6-5.8-1.1L158,221.5z"/>
				<path class="st54" d="M165.4,221.3c-0.4,0-0.8,0-1.3-0.1l0-0.3h2.6l0,0.3C166.7,221.3,166.2,221.3,165.4,221.3z"/>
				<path class="st54" d="M174,222.5l-4.3-0.1l-0.5-0.3v-1l0.1,0c0,0,4.8-0.6,6-1.1l0.2-0.1l0.3,1.8L174,222.5z M169.8,222.1
					l4.1,0.1l1.6-0.8l-0.2-1.3c-1.3,0.5-5,1-5.8,1.1v0.6L169.8,222.1z"/>
				<path class="st54" d="M168,221.3c-0.8,0-1.3-0.1-1.3-0.1l0-0.3h2.6l0,0.3C168.8,221.3,168.4,221.3,168,221.3z"/>
			</g>
		</g>
		<circle class="st55" cx="122.7" cy="134.7" r="19.8"/>
		<polygon class="st56" points="133,121.5 112.4,121.5 120,134.7 112.4,148 133,148 125.3,134.7 		"/>
		<g>
			<g>
				<path class="st57" d="M166.7,54.2c0,0,0.1,0.1,0.1,0.1c0.1-0.1,0.1-0.1,0.1-0.2c2.6-2.9,5.2-5.9,7.8-8.8c2.4-2.7,4.7-5.4,7.1-8
					c0.1-0.1,0.1-0.2,0-0.3c-0.7-1.1-1.6-2.1-2.5-3c-0.1-0.1-0.2-0.2-0.4,0c-2.7,2.1-5.3,4.2-8,6.4c-0.1,0-0.1,0.1-0.2,0.1
					c0,0,0,0,0-0.1c-0.6-1.3-1.2-2.5-1.7-3.9c-0.3-0.9,0.1-1.4,0.8-1.5c0.4-0.1,0.7,0,1.1,0c0.1,0,0.1,0,0.2,0
					c0-0.5-0.2-0.8-0.6-0.9c-0.3-0.1-0.6-0.2-1-0.3c-0.4-0.1-0.7-0.1-1.1-0.2c-0.4,0-0.8,0-1.3,0c-0.1,0-0.1,0-0.2,0
					c-0.8,0-1.3,0.4-1.7,1c-0.3,0.5-0.6,1.1-0.8,1.6c-0.6,1.3-1.1,2.5-1.6,3.8c0,0.1-0.1,0.2-0.2,0.4c-2.8-2.2-5.5-4.4-8.3-6.7
					c-0.1,0.1-0.1,0.2-0.2,0.2c-1,0.9-1.8,2-2.5,3.1c-0.1,0.1-0.1,0.2,0,0.4C156.8,43,161.7,48.6,166.7,54.2z"/>
				<path class="st57" d="M166.8,55.1c-1.2-1.3-2.3-2.6-3.5-3.9c-2.3,3.4-4.7,6.8-7,10.2c0,0,0.1,0.1,0.1,0.1
					c2.5,1.8,5.4,2.9,8.5,3.2c0.4,0,0.7,0.1,1.1,0.1c0.6,0,1.2,0,1.8,0c0.2,0,0.4,0,0.6-0.1c3.2-0.3,6.2-1.4,8.8-3.2
					c0,0,0.1-0.1,0.1-0.1c-2.3-3.4-4.7-6.8-7-10.2C169.2,52.5,168,53.8,166.8,55.1z"/>
				<path class="st57" d="M154.6,42.4c0,0,0.1-0.1,0.1-0.1c-1.2-1.5-2.4-2.9-3.6-4.3c0,0-0.1,0.1-0.1,0.1c-1.2,2.1-1.9,4.3-2.2,6.7
					c0,0.4-0.1,0.7-0.1,1.1c0,0.5,0,1.1,0,1.6c0,0,0.1-0.1,0.1-0.1C150.9,45.7,152.8,44,154.6,42.4z"/>
				<path class="st57" d="M184.8,45.8c-0.2-2.7-0.9-5.2-2.2-7.6c0,0-0.1-0.1-0.1-0.1c-1.2,1.4-2.4,2.8-3.6,4.3c0,0,0.1,0.1,0.1,0.1
					c1.9,1.7,3.8,3.4,5.6,5.1c0,0,0.1,0.1,0.1,0.1c0-0.5,0-1,0-1.6C184.8,45.9,184.8,45.9,184.8,45.8z"/>
				<path class="st57" d="M158.3,46.5c0,0.1-0.1,0.1-0.1,0.1c-2.5,2.7-4.9,5.4-7.4,8c-0.1,0.1-0.1,0.2,0,0.3c0.8,1.6,1.8,3,3,4.2
					c0,0,0.1,0.1,0.1,0.1c2.5-3,4.9-6.1,7.4-9.1C160.3,49,159.3,47.8,158.3,46.5z"/>
				<path class="st57" d="M177.8,49.2c-0.8-0.9-1.6-1.7-2.4-2.6c-1,1.2-2,2.4-3,3.6c2.5,3,4.9,6.1,7.4,9.1c0-0.1,0.1-0.1,0.1-0.2
					c1.2-1.3,2.2-2.7,3-4.2c0.1-0.1,0-0.2,0-0.3C181.1,52.9,179.4,51,177.8,49.2z"/>
				<path class="st57" d="M155.1,42.6C155,42.6,155,42.6,155.1,42.6c-2.1,1.8-4.1,3.6-6.1,5.4c0,0-0.1,0.1-0.1,0.2
					c0.1,1.5,0.4,2.9,0.9,4.3c0.2,0.6,0.5,1.3,0.7,1.9c2.5-2.8,5-5.5,7.5-8.2C157.1,45,156.1,43.8,155.1,42.6z"/>
				<path class="st57" d="M184.6,48c-1.9-1.7-3.9-3.5-5.8-5.2c0,0-0.1-0.1-0.2-0.1c-1,1.2-2,2.4-3,3.6c2.5,2.7,5,5.5,7.5,8.2
					c0-0.1,0.1-0.1,0.1-0.2c0.9-1.9,1.4-3.9,1.5-5.9C184.7,48.2,184.7,48.1,184.6,48z"/>
			</g>
		</g>
		<g>
			<g>
				
					<rect x="204.3" y="119.6" transform="matrix(0.7071 -0.7071 0.7071 0.7071 -30.6116 189.3222)" class="st58" width="17.9" height="24"/>
				<polygon class="st58" points="228.4,134.1 222,140.4 215.7,146.8 218.8,147.6 224,142.4 229.2,137.2 				"/>
				<polygon class="st58" points="210.8,116.5 204.4,122.8 198.1,129.2 197.2,126 202.4,120.8 207.6,115.6 				"/>
			</g>
			<g>
				<polygon class="st36" points="206.7,141.6 204.8,136.7 202.4,139.1 204.3,144 				"/>
				<polygon class="st36" points="208.8,139.5 205.4,136.1 205,136.5 206.9,141.4 				"/>
				<polygon class="st36" points="197.2,144.3 199,149.1 201.5,146.7 199.6,141.8 				"/>
				<polygon class="st36" points="194.6,146.8 198,150.2 198.9,149.3 197,144.4 				"/>
				<polygon class="st36" points="202.2,139.3 199.8,141.7 201.7,146.6 204.1,144.1 				"/>
			</g>
			<polygon class="st58" points="217.1,122.3 219.8,125 222.5,127.7 222.9,126.4 220.7,124.2 218.4,121.9 			"/>
		</g>
		<g>
			<g>
				<path class="st36" d="M167.6,198.2c-10.9,0-19.8-8.9-19.8-19.8c0-10.9,8.9-19.8,19.8-19.8s19.8,8.9,19.8,19.8
					C187.4,189.3,178.5,198.2,167.6,198.2z M167.6,161.1c-9.5,0-17.3,7.7-17.3,17.3s7.7,17.3,17.3,17.3s17.3-7.7,17.3-17.3
					C184.9,168.9,177.1,161.1,167.6,161.1z"/>
				<path class="st36" d="M167.6,192.7c-7.9,0-14.3-6.4-14.3-14.3s6.4-14.3,14.3-14.3s14.3,6.4,14.3,14.3S175.5,192.7,167.6,192.7z
					 M167.6,166.6c-6.5,0-11.8,5.3-11.8,11.8c0,6.5,5.3,11.8,11.8,11.8c6.5,0,11.8-5.3,11.8-11.8S174.1,166.6,167.6,166.6z"/>
			</g>
			<polygon class="st58" points="167.6,170 169.7,176.4 176.5,176.4 171,180.4 173.1,186.8 167.6,182.8 162.1,186.8 164.2,180.4 
				158.8,176.4 165.5,176.4 			"/>
		</g>
		<polygon class="st23" points="183.9,107 149.4,107 149.4,74 151.8,74 151.8,104.6 181.5,104.6 181.5,79.3 157.6,79.3 157.6,98.8 
			175.7,98.8 175.7,84.9 162.9,84.9 162.9,91.8 169.3,91.8 169.3,94.1 160.6,94.1 160.6,82.6 178,82.6 178,101.1 155.3,101.1 
			155.3,77 183.9,77 		"/>
		<g>
			
				<rect x="64.3" y="165" transform="matrix(0.7071 -0.7071 0.7071 0.7071 -103.6294 107.6967)" class="st23" width="27.8" height="27.8"/>
			
				<rect x="68.9" y="169.6" transform="matrix(0.7071 -0.7071 0.7071 0.7071 -103.6289 107.6965)" class="st26" width="18.6" height="18.6"/>
			
				<rect x="73.7" y="174.5" transform="matrix(0.7071 -0.7071 0.7071 0.7071 -103.6288 107.697)" class="st31" width="8.9" height="8.9"/>
		</g>
		<g>
			
				<rect x="153" y="296.8" transform="matrix(0.7071 -0.7071 0.7071 0.7071 -170.8213 208.9863)" class="st33" width="27.8" height="27.8"/>
			
				<rect x="157.5" y="301.4" transform="matrix(0.7071 -0.7071 0.7071 0.7071 -170.8208 208.9861)" class="st26" width="18.6" height="18.6"/>
			
				<rect x="162.4" y="306.2" transform="matrix(0.7071 -0.7071 0.7071 0.7071 -170.8212 208.9862)" class="st38" width="8.9" height="8.9"/>
		</g>
		<polygon class="st36" points="95.5,150.8 79.3,150.8 79.3,119.3 64.6,119.3 64.6,126 72.6,126 72.6,122.5 67.8,122.5 67.8,123.5 
			70.4,123.5 70.4,125.1 66.3,125.1 66.3,120.9 74.1,120.9 74.1,127.5 63.1,127.5 63.1,117.8 80.8,117.8 80.8,149.2 94,149.2 
			94,141.5 84,141.5 84,145.5 91.2,145.5 91.2,144.3 86,144.3 86,142.7 92.7,142.7 92.7,147.1 82.4,147.1 82.4,139.9 95.5,139.9 		
			"/>
		<polygon class="st36" points="230.3,154.5 224.4,154.5 224.4,148.9 224.8,148.9 224.8,154.1 229.9,154.1 229.9,149.8 225.8,149.8 
			225.8,153.1 228.9,153.1 228.9,150.7 226.7,150.7 226.7,151.9 227.8,151.9 227.8,152.3 226.3,152.3 226.3,150.3 229.3,150.3 
			229.3,153.5 225.4,153.5 225.4,149.4 230.3,149.4 		"/>
		<polygon class="st36" points="230.3,120.4 224.4,120.4 224.4,114.8 224.8,114.8 224.8,120 229.9,120 229.9,115.7 225.8,115.7 
			225.8,119 228.9,119 228.9,116.7 226.7,116.7 226.7,117.9 227.8,117.9 227.8,118.2 226.3,118.2 226.3,116.3 229.3,116.3 
			229.3,119.4 225.4,119.4 225.4,115.4 230.3,115.4 		"/>
		<polygon class="st36" points="197.1,120.6 191.3,120.6 191.3,115 191.7,115 191.7,120.2 196.7,120.2 196.7,115.9 192.7,115.9 
			192.7,119.2 195.7,119.2 195.7,116.9 193.6,116.9 193.6,118 194.6,118 194.6,118.4 193.2,118.4 193.2,116.5 196.1,116.5 
			196.1,119.6 192.3,119.6 192.3,115.5 197.1,115.5 		"/>
		<polygon class="st36" points="197.1,154.5 191.3,154.5 191.3,148.9 191.7,148.9 191.7,154.1 196.7,154.1 196.7,149.8 192.7,149.8 
			192.7,153.1 195.7,153.1 195.7,150.7 193.6,150.7 193.6,151.9 194.6,151.9 194.6,152.3 193.2,152.3 193.2,150.4 196.1,150.4 
			196.1,153.5 192.3,153.5 192.3,149.4 197.1,149.4 		"/>
		<g>
			<path class="st32" d="M234.4,198.4h39.5v-39.5h-39.5L234.4,198.4L234.4,198.4z M236.8,161.3h34.7V196h-34.7V161.3z"/>
			<path class="st32" d="M239.2,193.6h29.9v-29.9h-29.9V193.6z M241.6,166.2h25v25h-25V166.2z"/>
			<path class="st32" d="M244.2,188.6h19.8v-19.8h-19.8V188.6z M246.7,171.2h15v15h-15V171.2z"/>
			<path class="st32" d="M249.1,183.7h10.1v-10.1h-10.1V183.7z M251.5,176.1h5.2v5.2h-5.2V176.1z"/>
		</g>
		<g>
			<polygon class="st26" points="106.7,94.3 115.8,85.3 107,76.5 114.6,68.9 111.3,68.9 103.7,76.5 112.5,85.3 103.4,94.3 
				112.6,103.5 103.3,112.8 106.6,112.8 115.9,103.5 			"/>
			<polygon class="st26" points="114.5,94.3 123.6,85.3 114.8,76.5 122.4,68.9 119.1,68.9 111.5,76.5 120.3,85.3 111.2,94.3 
				120.4,103.5 111.2,112.8 114.5,112.8 123.7,103.5 			"/>
			<polygon class="st26" points="122.1,94.3 131.1,85.3 122.3,76.5 129.9,68.9 126.7,68.9 119,76.5 127.8,85.3 118.8,94.3 
				128,103.5 118.7,112.8 122,112.8 131.3,103.5 			"/>
			<polygon class="st26" points="129.6,94.3 138.7,85.3 129.9,76.5 137.5,68.9 134.2,68.9 126.6,76.5 135.4,85.3 126.3,94.3 
				135.5,103.5 126.2,112.8 129.5,112.8 138.8,103.5 			"/>
		</g>
		<polygon class="st59" points="208.5,226.3 217.6,217.2 208.8,208.4 216.4,200.8 212.1,200.8 204.5,208.4 213.3,217.2 204.3,226.3 
			213.5,235.5 204.2,244.7 208.4,244.7 217.7,235.5 		"/>
		<polygon class="st59" points="201,226.3 210,217.2 201.3,208.4 208.9,200.8 204.3,200.8 196.7,208.4 205.5,217.2 196.4,226.3 
			205.7,235.5 196.4,244.7 200.9,244.7 210.2,235.5 		"/>
		<polygon class="st59" points="216,226.3 225.1,217.2 216.3,208.4 223.9,200.8 219.7,200.8 212.1,208.4 220.9,217.2 211.8,226.3 
			221,235.5 211.7,244.7 216,244.7 225.3,235.5 		"/>
		<polygon class="st60" points="196.4,226.3 205.5,217.2 196.7,208.4 204.3,200.8 201,200.8 193.4,208.4 202.2,217.2 193.2,226.3 
			202.4,235.5 193.1,244.7 196.4,244.7 205.7,235.5 		"/>
		<polygon class="st60" points="204.3,226.3 213.3,217.2 204.5,208.4 212.1,200.8 208.9,200.8 201.3,208.4 210,217.2 201,226.3 
			210.2,235.5 200.9,244.7 204.2,244.7 213.5,235.5 		"/>
		<polygon class="st60" points="211.8,226.3 220.9,217.2 212.1,208.4 219.7,200.8 216.4,200.8 208.8,208.4 217.6,217.2 208.5,226.3 
			217.7,235.5 208.4,244.7 211.7,244.7 221,235.5 		"/>
		<polygon class="st60" points="219.3,226.3 228.4,217.2 219.6,208.4 227.2,200.8 223.9,200.8 216.3,208.4 225.1,217.2 216,226.3 
			225.3,235.5 216,244.7 219.3,244.7 228.5,235.5 		"/>
		<g>
			<g>
				<g>
					<rect x="105.2" y="157.6" class="st61" width="9.6" height="9.6"/>
					<rect x="107.3" y="159.6" class="st62" width="5.4" height="5.4"/>
					<rect x="108.7" y="161" class="st61" width="2.7" height="2.7"/>
				</g>
				<g>
					<rect x="105.2" y="168.3" class="st61" width="9.6" height="9.6"/>
					<rect x="107.3" y="170.4" class="st62" width="5.4" height="5.4"/>
					<rect x="108.7" y="171.8" class="st61" width="2.7" height="2.7"/>
				</g>
				<g>
					<rect x="105.2" y="179" class="st61" width="9.6" height="9.6"/>
					<rect x="107.3" y="181.1" class="st62" width="5.4" height="5.4"/>
					<rect x="108.7" y="182.5" class="st61" width="2.7" height="2.7"/>
				</g>
				<g>
					<rect x="105.2" y="189.8" class="st61" width="9.6" height="9.6"/>
					<rect x="107.3" y="191.9" class="st62" width="5.4" height="5.4"/>
					<rect x="108.7" y="193.3" class="st61" width="2.7" height="2.7"/>
				</g>
			</g>
			<g>
				<g>
					<rect x="130.9" y="157.6" class="st61" width="9.6" height="9.6"/>
					<rect x="133" y="159.6" class="st62" width="5.4" height="5.4"/>
					<rect x="134.4" y="161" class="st61" width="2.7" height="2.7"/>
				</g>
				<g>
					<rect x="130.9" y="168.3" class="st61" width="9.6" height="9.6"/>
					<rect x="133" y="170.4" class="st62" width="5.4" height="5.4"/>
					<rect x="134.4" y="171.8" class="st61" width="2.7" height="2.7"/>
				</g>
				<g>
					<rect x="130.9" y="179" class="st61" width="9.6" height="9.6"/>
					<rect x="133" y="181.1" class="st62" width="5.4" height="5.4"/>
					<rect x="134.4" y="182.5" class="st61" width="2.7" height="2.7"/>
				</g>
				<g>
					<rect x="130.9" y="189.8" class="st61" width="9.6" height="9.6"/>
					<rect x="133" y="191.9" class="st62" width="5.4" height="5.4"/>
					<rect x="134.4" y="193.3" class="st61" width="2.7" height="2.7"/>
				</g>
			</g>
		</g>
		<g>
			<g>
				<g>
					<rect x="145.8" y="275" class="st33" width="9.6" height="9.6"/>
					<rect x="147.9" y="277.1" class="st42" width="5.4" height="5.4"/>
					<rect x="149.3" y="278.5" class="st33" width="2.7" height="2.7"/>
				</g>
				<g>
					<rect x="156.5" y="275" class="st33" width="9.6" height="9.6"/>
					<rect x="158.6" y="277.1" class="st42" width="5.4" height="5.4"/>
					<rect x="160" y="278.5" class="st33" width="2.7" height="2.7"/>
				</g>
				<g>
					<rect x="167.3" y="275" class="st33" width="9.6" height="9.6"/>
					<rect x="169.4" y="277.1" class="st42" width="5.4" height="5.4"/>
					<rect x="170.8" y="278.5" class="st33" width="2.7" height="2.7"/>
				</g>
				<g>
					<rect x="178" y="275" class="st33" width="9.6" height="9.6"/>
					<rect x="180.1" y="277.1" class="st42" width="5.4" height="5.4"/>
					<rect x="181.5" y="278.5" class="st33" width="2.7" height="2.7"/>
				</g>
			</g>
			<g>
				<g>
					<rect x="145.8" y="249.4" class="st33" width="9.6" height="9.6"/>
					<rect x="147.9" y="251.5" class="st42" width="5.4" height="5.4"/>
					<rect x="149.3" y="252.9" class="st33" width="2.7" height="2.7"/>
				</g>
				<g>
					<rect x="156.5" y="249.4" class="st33" width="9.6" height="9.6"/>
					<rect x="158.6" y="251.5" class="st42" width="5.4" height="5.4"/>
					<rect x="160" y="252.9" class="st33" width="2.7" height="2.7"/>
				</g>
				<g>
					<rect x="167.3" y="249.4" class="st33" width="9.6" height="9.6"/>
					<rect x="169.4" y="251.5" class="st42" width="5.4" height="5.4"/>
					<rect x="170.8" y="252.9" class="st33" width="2.7" height="2.7"/>
				</g>
				<g>
					<rect x="178" y="249.4" class="st33" width="9.6" height="9.6"/>
					<rect x="180.1" y="251.5" class="st42" width="5.4" height="5.4"/>
				</g>
			</g>
		</g>
		<rect x="181.4" y="252.2" class="st33" width="2.7" height="2.7"/>
		<polygon class="st36" points="265.9,153.1 245.2,153.1 267,131.3 253.9,118.2 243.4,128.7 247.9,133.2 253.2,128 254.7,129.4 
			247.9,136.1 240.5,128.7 253.9,115.3 270,131.3 250.2,151.1 263.8,151.1 263.8,142.1 265.9,142.1 		"/>
		<g>
			<rect x="264.7" y="114.6" class="st36" width="9.6" height="9.6"/>
			<rect x="266.8" y="116.7" class="st62" width="5.4" height="5.4"/>
			<rect x="268.2" y="118.1" class="st3" width="2.7" height="2.7"/>
		</g>
		<g>
			<rect x="234.9" y="144.7" class="st36" width="9.6" height="9.6"/>
			<rect x="237" y="146.7" class="st62" width="5.4" height="5.4"/>
			<rect x="238.4" y="148.1" class="st3" width="2.7" height="2.7"/>
		</g>
		<g>
			<g>
				<g>
					<rect x="267" y="202.4" class="st42" width="6.4" height="6.4"/>
					<rect x="268.4" y="203.8" class="st37" width="3.6" height="3.6"/>
					<rect x="269.3" y="204.7" class="st61" width="1.8" height="1.8"/>
				</g>
				<g>
					<rect x="267" y="236.6" class="st42" width="6.4" height="6.4"/>
					<rect x="268.4" y="238" class="st37" width="3.6" height="3.6"/>
					<rect x="269.3" y="238.9" class="st61" width="1.8" height="1.8"/>
				</g>
			</g>
			<g>
				<g>
					<rect x="236.1" y="202.5" class="st42" width="6.4" height="6.4"/>
					<rect x="237.5" y="204" class="st37" width="3.6" height="3.6"/>
					<rect x="238.4" y="204.9" class="st61" width="1.8" height="1.8"/>
				</g>
				<g>
					<rect x="236.1" y="236.8" class="st42" width="6.4" height="6.4"/>
					<rect x="237.5" y="238.2" class="st37" width="3.6" height="3.6"/>
					<rect x="238.4" y="239.1" class="st61" width="1.8" height="1.8"/>
				</g>
			</g>
		</g>
	</g>
</g>
<g>
	<g>
		<path class="st3" d="M397.1,123c0,3.5-0.7,6.3-2.1,8.6s-3.2,4-5.3,5.4c-2.2,1.3-4.5,2.3-7.1,2.8c-2.6,0.5-5.1,0.8-7.5,0.8h-26.2
			v-3.2c1.1-0.2,2-0.5,2.7-0.7c0.7-0.3,1.2-0.6,1.6-1c0.4-0.4,0.6-0.9,0.8-1.5c0.1-0.6,0.2-1.4,0.2-2.5V86.9c0-1-0.1-1.9-0.2-2.5
			c-0.1-0.6-0.4-1.1-0.8-1.5c-0.4-0.4-0.9-0.7-1.6-1c-0.7-0.2-1.6-0.5-2.7-0.8V78h23.3c2.4,0,4.9,0.1,7.6,0.2
			c2.7,0.1,5.2,0.7,7.5,1.5c2.3,0.9,4.2,2.3,5.7,4.2c1.5,1.9,2.3,4.6,2.3,8.2c0,2.3-0.4,4.2-1.2,5.9c-0.8,1.7-1.9,3.1-3.1,4.3
			c-1.3,1.2-2.7,2.2-4.4,3c-1.6,0.8-3.3,1.4-4.9,1.8v0.5c4.7,0.6,8.5,2.2,11.3,4.7C395.7,114.8,397.1,118.3,397.1,123z M383.5,93.6
			c0-2.1-0.3-3.9-1-5.3c-0.7-1.4-1.5-2.4-2.6-3.2s-2.2-1.3-3.4-1.6c-1.2-0.3-2.4-0.4-3.6-0.4c-0.8,0-1.6,0-2.7,0.1
			c-1,0.1-2.5,0.3-4.4,0.6v21.9h4.9c2.4,0,4.5-0.4,6.1-1.1c1.6-0.7,3-1.7,4-2.8c1-1.1,1.7-2.4,2.1-3.8
			C383.3,96.5,383.5,95,383.5,93.6z M385,122.3c0-2.8-0.5-5-1.5-6.6c-1-1.6-2.3-2.8-3.8-3.5c-1.5-0.7-3.2-1.2-4.9-1.3
			c-1.8-0.1-3.4-0.2-4.9-0.2h-4.1V132c0,1.3,0.3,2.2,0.9,2.6c0.6,0.4,1.8,0.6,3.6,0.6h2.6c0.9,0,2.1-0.1,3.5-0.3
			c1.4-0.2,2.7-0.8,4-1.6c1.3-0.9,2.4-2.1,3.3-3.8C384.6,127.6,385,125.3,385,122.3z"/>
		<path class="st3" d="M459.1,109.1c0,4.8-0.6,9.2-1.7,13.2c-1.2,4-2.9,7.5-5.2,10.4c-2.3,2.9-5.1,5.1-8.6,6.7
			c-3.4,1.6-7.4,2.4-12,2.4c-4.2,0-7.9-0.7-11.1-2.2c-3.2-1.5-5.9-3.6-8.1-6.3c-2.2-2.7-3.8-6.1-4.9-10.1c-1.1-4-1.7-8.5-1.7-13.5
			c0-4.5,0.5-8.8,1.6-12.8c1.1-4,2.7-7.5,5-10.4c2.3-3,5.1-5.3,8.6-7c3.4-1.7,7.5-2.6,12.3-2.6c4.2,0,7.9,0.8,11.1,2.3
			c3.2,1.5,5.9,3.7,8.1,6.5c2.2,2.8,3.8,6.2,4.9,10.2C458.6,99.7,459.1,104.1,459.1,109.1z M447.2,111.6c0-4.7-0.3-8.9-0.9-12.5
			c-0.6-3.7-1.5-6.8-2.7-9.3c-1.2-2.5-2.8-4.5-4.7-5.8c-1.9-1.3-4.2-2-6.9-2c-4.7,0-8.3,2-10.7,6c-2.5,4-3.7,10.4-3.7,19.1
			c0,4.2,0.3,8.1,0.8,11.7c0.5,3.6,1.4,6.8,2.6,9.4c1.2,2.7,2.8,4.8,4.7,6.3c1.9,1.5,4.2,2.3,6.9,2.3c4.5,0,8-2,10.6-6.1
			C446,126.5,447.2,120.2,447.2,111.6z"/>
		<path class="st3" d="M505.5,140.5h-39.3v-3.2c1.1-0.2,2-0.5,2.7-0.7c0.7-0.3,1.2-0.6,1.6-1c0.4-0.4,0.6-0.9,0.8-1.5
			c0.1-0.6,0.2-1.4,0.2-2.5V86.9c0-1-0.1-1.9-0.2-2.5c-0.1-0.6-0.4-1.1-0.8-1.5c-0.4-0.4-0.9-0.7-1.6-1c-0.7-0.2-1.6-0.5-2.7-0.8V78
			h22.2v3.2c-1.1,0.3-2,0.6-2.7,0.8c-0.7,0.2-1.2,0.6-1.6,1c-0.4,0.4-0.6,0.9-0.8,1.5c-0.1,0.6-0.2,1.4-0.2,2.5v42.9
			c0,2,0.3,3.4,1,4.2c0.6,0.8,2,1.2,4,1.2h2.9c3.6,0,6.3-0.7,8-2c1.7-1.3,3.1-3.2,4.1-5.7l2.1-5l2.9,0.5L505.5,140.5z"/>
		<path class="st3" d="M516.6,140.5v-3.2c1.1-0.2,2-0.5,2.7-0.7c0.7-0.3,1.2-0.6,1.6-1c0.4-0.4,0.6-0.9,0.8-1.5
			c0.1-0.6,0.2-1.4,0.2-2.5V86.9c0-1-0.1-1.9-0.2-2.5c-0.1-0.6-0.4-1.1-0.8-1.5c-0.4-0.4-0.9-0.7-1.6-1c-0.7-0.2-1.6-0.5-2.7-0.8V78
			h22.2v3.2c-1.1,0.3-2,0.6-2.7,0.8c-0.7,0.2-1.2,0.6-1.6,1c-0.4,0.4-0.6,0.9-0.8,1.5c-0.1,0.6-0.2,1.4-0.2,2.5v44.6
			c0,1,0.1,1.9,0.2,2.5c0.1,0.6,0.4,1.1,0.8,1.5c0.4,0.4,0.9,0.7,1.6,1c0.7,0.3,1.6,0.5,2.7,0.7v3.2H516.6z"/>
		<path class="st3" d="M598.7,82c-0.6,0.3-1.2,0.7-1.6,1.2c-0.5,0.5-1,1.2-1.4,2.1c-0.4,0.9-0.9,2.1-1.4,3.5l-17.4,51.6h-8.4l-17-54
			c-0.6-1.8-1.3-3-2-3.6c-0.8-0.6-1.9-1.2-3.3-1.6V78h21.8v3.2c-1.7,0.3-2.8,0.6-3.3,1c-0.5,0.4-0.8,1.1-0.8,2
			c0,0.8,0.1,1.9,0.4,3.3c0.3,1.4,0.6,2.7,1,4l10.8,35.4l11.4-36.6c0.7-2.4,1-4.3,1-5.6c0-1.9-1.4-3.1-4.1-3.5V78h16.4v3.2
			C600,81.5,599.3,81.8,598.7,82z"/>
		<path class="st3" d="M608.9,140.5v-3.2c1.1-0.2,2-0.5,2.7-0.7c0.7-0.3,1.2-0.6,1.6-1c0.4-0.4,0.6-0.9,0.8-1.5
			c0.1-0.6,0.2-1.4,0.2-2.5V86.9c0-1-0.1-1.9-0.2-2.5c-0.1-0.6-0.4-1.1-0.8-1.5c-0.4-0.4-0.9-0.7-1.6-1c-0.7-0.2-1.6-0.5-2.7-0.8V78
			h22.2v3.2c-1.1,0.3-2,0.6-2.7,0.8c-0.7,0.2-1.2,0.6-1.6,1c-0.4,0.4-0.6,0.9-0.8,1.5c-0.1,0.6-0.2,1.4-0.2,2.5v44.6
			c0,1,0.1,1.9,0.2,2.5c0.1,0.6,0.4,1.1,0.8,1.5c0.4,0.4,0.9,0.7,1.6,1c0.7,0.3,1.6,0.5,2.7,0.7v3.2H608.9z"/>
		<path class="st3" d="M674.1,140.5v-3.2c1.4-0.3,2.5-0.6,3-1c0.6-0.4,0.9-1.1,0.9-2.2c0-0.5-0.1-1-0.2-1.6
			c-0.1-0.6-0.3-1.2-0.4-1.8l-3.2-10.9h-18.7l-2.3,6.4c-0.5,1.5-0.9,2.9-1.2,4.2c-0.3,1.3-0.5,2.4-0.5,3.4c0,0.7,0.2,1.4,0.7,2.1
			c0.4,0.7,1.3,1.2,2.6,1.5v3.2h-15.2v-3.2c1.1-0.4,2.1-1.1,3-2c0.9-1,1.8-2.6,2.7-5L665.5,78h7.4l17.4,53.6c0.3,1.2,0.7,2.1,1,2.7
			c0.3,0.7,0.7,1.2,1.1,1.6c0.4,0.4,0.8,0.7,1.3,0.9c0.5,0.2,1.1,0.4,1.7,0.6v3.2L674.1,140.5L674.1,140.5z M665.7,92l-8.3,22.4
			h15.2L665.7,92z"/>
	</g>
	<g>
		<path class="st63" d="M277.9,51.1v15.6h-2.6l-8-11.7v11.7h-2.6V51.1h2.6l8,11.6V51.1H277.9z"/>
		<path class="st63" d="M291.9,63.6h-6.8l-1.2,3.2h-2.8l5.8-15.6h3.1l5.8,15.6h-2.8L291.9,63.6z M288.5,54.2l-2.6,7.3h5.3
			L288.5,54.2z"/>
		<path class="st63" d="M304.7,51.2c3.8,0,5.7,2.1,5.7,4.7c0,1.8-1,3.8-3.7,4.5l4,6.5h-3.2l-3.7-6.2h-2v6.2h-2.6V51.2L304.7,51.2
			L304.7,51.2z M304.7,53.3h-2.9v5.2h2.9c2.1,0,3-1.1,3-2.6C307.7,54.3,306.8,53.3,304.7,53.3z"/>
		<path class="st63" d="M321.9,51c3.4,0,6.3,1.6,7.5,4.7h-3.2c-0.9-1.7-2.4-2.4-4.3-2.4c-3.2,0-5.5,2.2-5.5,5.7s2.3,5.7,5.5,5.7
			c1.9,0,3.5-0.8,4.3-2.4h3.2c-1.2,3.1-4.1,4.7-7.5,4.7c-4.6,0-8.2-3.3-8.2-8C313.7,54.3,317.4,51,321.9,51z"/>
		<path class="st63" d="M340.6,66.9c-4.6,0-8.2-3.3-8.2-8c0-4.7,3.7-8,8.2-8c4.6,0,8.2,3.3,8.2,8C348.9,63.6,345.2,66.9,340.6,66.9z
			 M340.6,64.7c3.2,0,5.5-2.2,5.5-5.8s-2.3-5.7-5.5-5.7c-3.2,0-5.5,2.2-5.5,5.7C335.1,62.5,337.4,64.7,340.6,64.7z"/>
		<path class="st3" d="M361.2,53.2h-6.3v4.6h5.6v2.1h-5.6v4.8h6.3v2.1h-8.9V51.1h8.9V53.2z"/>
		<path class="st3" d="M370.5,66.9c-3.2,0-5.7-1.7-5.7-4.5h2.8c0.1,1.3,1,2.3,2.9,2.3c1.9,0,2.9-1,2.9-2.3c0-3.8-8.6-1.3-8.6-7.1
			c0-2.7,2.3-4.4,5.5-4.4c3.1,0,5.3,1.6,5.5,4.2h-2.9c-0.1-1.1-1-2-2.7-2.1c-1.5,0-2.7,0.7-2.7,2.2c0,3.5,8.5,1.3,8.5,7
			C376.1,64.7,374.1,66.9,370.5,66.9z"/>
		<path class="st3" d="M379.1,51.2h11.3v2.1h-4.3v13.5h-2.6V53.3h-4.3V51.2z"/>
		<path class="st3" d="M403.5,63.6h-6.8l-1.2,3.2h-2.8l5.8-15.6h3.1l5.8,15.6h-2.8L403.5,63.6z M400.2,54.2l-2.6,7.3h5.3L400.2,54.2
			z"/>
		<path class="st3" d="M424.6,59c0,4.8-3.4,7.7-8.6,7.7h-5.3V51.2h5.3C421.2,51.2,424.6,54.2,424.6,59z M416,64.7
			c3.8,0,5.8-2.1,5.8-5.7c0-3.6-2-5.8-5.8-5.8h-2.6v11.4L416,64.7L416,64.7z"/>
		<path class="st3" d="M435.4,66.9c-4.5,0-8.2-3.3-8.2-8c0-4.7,3.7-8,8.2-8c4.6,0,8.2,3.3,8.2,8C443.6,63.6,439.9,66.9,435.4,66.9z
			 M435.4,64.7c3.2,0,5.5-2.2,5.5-5.8s-2.3-5.7-5.5-5.7s-5.5,2.2-5.5,5.7C429.8,62.5,432.1,64.7,435.4,64.7z"/>
		<path class="st3" d="M466.1,60.4h-2.9v6.3h-2.6V51.2h5.6c3.8,0,5.7,2.1,5.7,4.6C471.8,58,470.3,60.4,466.1,60.4z M466.1,58.4
			c2.1,0,3-1,3-2.5c0-1.6-0.9-2.6-3-2.6h-2.9v5.1H466.1z"/>
		<path class="st3" d="M477.8,51.2v13.5h5.5v2.1h-8.1V51.2H477.8z"/>
		<path class="st3" d="M486.2,51.2h2.6v9.9c0,2.4,1.4,3.6,3.6,3.6c2.3,0,3.7-1.1,3.7-3.6v-9.9h2.6v9.9c0,4-3,5.9-6.3,5.9
			c-3.4,0-6.3-1.9-6.3-5.9V51.2z"/>
		<path class="st3" d="M508.6,51.2c3.8,0,5.7,2.1,5.7,4.7c0,1.8-1,3.8-3.7,4.5l4,6.5h-3.2l-3.7-6.2h-2v6.2H503V51.2L508.6,51.2
			L508.6,51.2z M508.6,53.3h-2.9v5.2h2.9c2.1,0,3-1.1,3-2.6C511.6,54.3,510.6,53.3,508.6,53.3z"/>
		<path class="st3" d="M518.4,51.2h2.6v15.6h-2.6V51.2z"/>
		<path class="st3" d="M538.6,51.1v15.6h-2.6l-8-11.7v11.7h-2.6V51.1h2.6l8,11.6V51.1H538.6z"/>
		<path class="st3" d="M552.6,63.6h-6.8l-1.2,3.2h-2.8l5.8-15.6h3.1l5.8,15.6h-2.8L552.6,63.6z M549.2,54.2l-2.6,7.3h5.3L549.2,54.2
			z"/>
		<path class="st3" d="M567.1,51c3.4,0,6.3,1.6,7.5,4.7h-3.2c-0.9-1.7-2.4-2.4-4.3-2.4c-3.2,0-5.5,2.2-5.5,5.7s2.3,5.7,5.5,5.7
			c1.9,0,3.5-0.8,4.3-2.4h3.2c-1.2,3.1-4.1,4.7-7.5,4.7c-4.5,0-8.2-3.3-8.2-8C558.9,54.3,562.6,51,567.1,51z"/>
		<path class="st3" d="M578.5,51.2h2.6v15.6h-2.6V51.2z"/>
		<path class="st3" d="M592.8,66.9c-4.5,0-8.2-3.3-8.2-8c0-4.7,3.7-8,8.2-8c4.6,0,8.2,3.3,8.2,8C601,63.6,597.4,66.9,592.8,66.9z
			 M592.8,64.7c3.2,0,5.5-2.2,5.5-5.8s-2.3-5.7-5.5-5.7s-5.5,2.2-5.5,5.7C587.2,62.5,589.6,64.7,592.8,64.7z"/>
		<path class="st3" d="M617.6,51.1v15.6H615l-8-11.7v11.7h-2.6V51.1h2.6l8,11.6V51.1H617.6z"/>
		<path class="st3" d="M631.6,63.6h-6.8l-1.2,3.2h-2.8l5.8-15.6h3.1l5.8,15.6h-2.8L631.6,63.6z M628.2,54.2l-2.6,7.3h5.3L628.2,54.2
			z"/>
		<path class="st3" d="M641.5,51.2v13.5h5.5v2.1h-8.1V51.2H641.5z"/>
		<path class="st3" d="M677.3,59c0,4.8-3.4,7.7-8.6,7.7h-5.3V51.2h5.3C673.9,51.2,677.3,54.2,677.3,59z M668.8,64.7
			c3.8,0,5.8-2.1,5.8-5.7c0-3.6-2-5.8-5.8-5.8h-2.6v11.4L668.8,64.7L668.8,64.7z"/>
		<path class="st3" d="M689.6,53.2h-6.3v4.6h5.6v2.1h-5.6v4.8h6.3v2.1h-8.9V51.1h8.9V53.2z"/>
	</g>
</g>
<g>
	<g>
		<path class="st3" d="M345.9,197.1l2.9-0.4h0.7l2.5,0.4v1.3h-6.1V197.1z M346.1,182.1h3.6l0,1.7h-0.4l-3.2-0.4V182.1z M348.3,182.1
			h1.4l0.2,8.6v7.7h-1.6V182.1z M348.5,182.1h4.2l4.5,12.1h-0.8l4.2-12.1h1.6l-5.7,16.4h-1.9L348.5,182.1z M359,197.1l3.2-0.4h1.1
			l3.6,0.4v1.3H359V197.1z M360.9,191.2l0.1-9.2h4.2c-0.1,2.6-0.1,5.1-0.1,7.7v0.9c0,2.6,0,5.2,0.1,7.7h-4.3
			C360.9,195.9,360.8,193.3,360.9,191.2z M362.9,182.1h3.9v1.3l-3.5,0.4h-0.4V182.1z"/>
		<path class="st3" d="M378.9,183.4v-1.3h8v1.3l-3.7,0.4h-0.7L378.9,183.4z M383.2,196.7l3.7,0.4v1.3h-8v-1.3l3.6-0.4H383.2z
			 M380.8,189.8c0-2.6,0-5.2-0.1-7.7h4.3c-0.1,2.5-0.1,5.1-0.1,7.7v0.9c0,2.6,0,5.2,0.1,7.7h-4.3c0.1-2.5,0.1-5.1,0.1-7.7V189.8z"/>
		<path class="st3" d="M398.7,197.1l2.7-0.4h0.7l3.2,0.4v1.3h-6.6V197.1z M400,183l1.4,0.7l-2.7-0.2v-1.4h5.6l8.9,12.3v4.1h-2.1
			L400,183z M400.9,182.1l1.6,1.4v15h-1.6V182.1z M408.9,182.1h6.6v1.3l-2.5,0.4h-0.7l-3.3-0.4V182.1z M411.7,182.1h1.6v16.4
			l-1.6-1.6V182.1z"/>
		<path class="st3" d="M427.3,183.4v-1.3h8v1.3l-3.7,0.4h-0.7L427.3,183.4z M431.6,196.7l3.7,0.4v1.3h-8v-1.3l3.6-0.4H431.6z
			 M429.2,189.8c0-2.6,0-5.2-0.1-7.7h4.3c-0.1,2.5-0.1,5.1-0.1,7.7v0.9c0,2.6,0,5.2,0.1,7.7h-4.3c0.1-2.5,0.1-5.1,0.1-7.7V189.8z"/>
		<path class="st3" d="M455.4,195c0-1.3-0.6-1.9-2.2-2.6l-1.1-0.5c-2.9-1.3-4.6-2.8-4.6-5.6c0-3,2.4-4.8,6.2-4.8
			c1.8,0,3.5,0.5,4.7,1.3l-0.2,3.5H456l-0.6-3.8l2,0.7v1.2c-1.3-1-2.3-1.5-3.6-1.5c-1.4,0-2.6,0.9-2.6,2.3c0,1.3,0.8,2,2.3,2.7
			l1.2,0.5c3.2,1.4,4.5,2.8,4.5,5.3c0,2.9-2.2,5-6.5,5c-1.9,0-4-0.4-5.4-1.3l0.1-3.7h2.3l0.6,4l-1.9-0.6v-1.2
			c1.6,0.9,2.6,1.3,4.2,1.3C454.5,197.4,455.4,196.4,455.4,195z"/>
		<path class="st3" d="M471.7,183.5l1.8-1.4l-0.7,4.6h-2.1l0.1-4.6h14.6l0.1,4.6h-2.1l-0.7-4.6l1.8,1.4H471.7z M478.6,196.7l3.8,0.4
			v1.3h-8.5v-1.3l3.7-0.4H478.6z M476,189.8c0-2.6,0-5.2-0.1-7.7h4.3c-0.1,2.5-0.1,5.1-0.1,7.7v0.9c0,2.6,0,5.2,0.1,7.7H476
			c0.1-2.5,0.1-5.1,0.1-7.7V189.8z"/>
		<path class="st3" d="M497.1,183.4v-1.3h4v1.7h-0.4L497.1,183.4z M501.2,196.7v1.7h-4v-1.3l3.6-0.4H501.2z M499.1,189.8
			c0-2.6,0-5.2-0.1-7.7h4.3c-0.1,2.5-0.1,5.1-0.1,7.7v0.8c0,2.7,0,5.3,0.1,7.8H499c0.1-2.5,0.1-5.1,0.1-7.7V189.8z M507.2,182.1
			l1.8,1.4h-7.9v-1.4h8.7l0.2,4.3H508L507.2,182.1z M506.6,190.7h-5.5v-1.5h5.5V190.7z M510.5,194.1l-0.2,4.3h-9.2V197h8.4l-1.8,1.4
			l0.7-4.3H510.5z M505.9,189.7l0.4-2.4h1.4v5.4h-1.4l-0.4-2.5V189.7z"/>
		<path class="st3" d="M522.3,183.4v-1.3h4v1.7h-0.4L522.3,183.4z M526.7,196.7l3.6,0.4v1.3h-8v-1.3l3.6-0.4H526.7z M524.2,189.8
			c0-2.6,0-5.2-0.1-7.7h4.3c-0.1,2.5-0.1,5.1-0.1,7.8v0.8c0,2.7,0,5.2,0.1,7.8h-4.3c0.1-2.5,0.1-5.1,0.1-7.7V189.8z M526.3,189.5
			h2.9c2.5,0,3.2-1.4,3.2-3c0-2-1.1-3-3.1-3h-3.1v-1.4h4.1c3.9,0,6.1,1.5,6.1,4.1c0,1.9-1.4,3.9-5.8,4.1l0-0.3
			c3.9,0.1,4.9,1.4,5.4,4.1l0.7,3.8l-2-1.3l3.7,0.4v1.3c-1.2,0.3-1.6,0.4-2.7,0.4c-2.1,0-3.4-0.6-3.6-2.6l-0.5-2.9
			c-0.2-1.7-0.9-2.4-2.4-2.4h-2.9V189.5z"/>
		<path class="st3" d="M549.6,183.4v-1.3h8v1.3l-3.7,0.4h-0.7L549.6,183.4z M553.9,196.7l3.7,0.4v1.3h-8v-1.3l3.6-0.4H553.9z
			 M551.5,189.8c0-2.6,0-5.2-0.1-7.7h4.3c-0.1,2.5-0.1,5.1-0.1,7.7v0.9c0,2.6,0,5.2,0.1,7.7h-4.3c0.1-2.5,0.1-5.1,0.1-7.7V189.8z"/>
		<path class="st3" d="M585.4,190.3c0,5.7-3.8,8.6-7.9,8.6s-7.9-2.8-7.9-8.6c0-5.7,3.8-8.6,7.9-8.6
			C581.6,181.6,585.4,184.4,585.4,190.3z M577.5,197.5c2.5,0,3.5-3.1,3.5-7.2c0-4.1-1-7.2-3.5-7.2c-2.5,0-3.5,3.1-3.5,7.2
			C574,194.4,575,197.5,577.5,197.5z"/>
		<path class="st3" d="M644.3,183.4v-1.3h4v1.7h-0.4L644.3,183.4z M648.3,196.7v1.7h-4v-1.3l3.6-0.4H648.3z M646.2,189.8
			c0-2.6,0-5.2-0.1-7.7h4.3c-0.1,2.5-0.1,5.1-0.1,7.7v0.8c0,2.7,0,5.3,0.1,7.8h-4.3c0.1-2.5,0.1-5.1,0.1-7.8V189.8z M648.3,197h3
			c2.8,0,4.6-2.4,4.6-6.8c0-4.4-1.8-6.7-4.6-6.7h-3v-1.4h3.4c5.3,0,8.5,3.1,8.5,8.1c0,5.2-3.5,8.2-8.9,8.2h-2.9V197z"/>
		<path class="st3" d="M672.1,183.4v-1.3h4v1.7h-0.4L672.1,183.4z M676.2,196.7v1.7h-4v-1.3l3.6-0.4H676.2z M674.1,189.8
			c0-2.6,0-5.2-0.1-7.7h4.3c-0.1,2.5-0.1,5.1-0.1,7.7v0.8c0,2.7,0,5.3,0.1,7.8H674c0.1-2.5,0.1-5.1,0.1-7.7V189.8z M682.2,182.1
			l1.8,1.4h-7.9v-1.4h8.7l0.2,4.3H683L682.2,182.1z M681.6,190.7h-5.5v-1.5h5.5V190.7z M685.5,194.1l-0.2,4.3h-9.2V197h8.4l-1.8,1.4
			l0.7-4.3H685.5z M680.9,189.7l0.4-2.4h1.4v5.4h-1.4l-0.4-2.5V189.7z"/>
		<path class="st3" d="M347.5,223.1v-3.3h10v4.3h-1L347.5,223.1z M357.5,256.4v4.3h-10v-3.3l9-0.9H357.5z M352.3,239.1
			c0-6.4,0-12.9-0.2-19.3h10.8c-0.2,6.3-0.2,12.8-0.2,19.3v2.1c0,6.7,0,13.1,0.2,19.6h-10.8c0.2-6.3,0.2-12.8,0.2-19.3V239.1z
			 M372.7,219.8l4.5,3.5h-19.7v-3.5h21.8l0.4,10.7h-5.2L372.7,219.8z M371.2,241.4h-13.7v-3.7h13.7V241.4z M381,250l-0.4,10.7h-23
			v-3.5h20.9l-4.5,3.5l1.8-10.7H381z M369.3,238.8l0.9-6h3.6v13.4h-3.6l-0.9-6.3V238.8z"/>
		<path class="st3" d="M384.5,223.1v-3.3h10v4.3h-1L384.5,223.1z M394.5,256.4v4.3h-10v-3.3l9-0.9H394.5z M389.3,239.1
			c0-6.4,0-12.9-0.2-19.3H400c-0.2,6.3-0.2,12.8-0.2,19.3v2.1c0,6.7,0,13.1,0.2,19.6h-10.8c0.2-6.3,0.2-12.8,0.2-19.5V239.1z
			 M394.5,257.1h7.4c7.1,0,11.5-6.1,11.5-16.9c0-11-4.4-16.8-11.4-16.8h-7.5v-3.6h8.5c13.3,0,21.3,7.8,21.3,20.3
			c0,13-8.8,20.6-22.4,20.6h-7.4V257.1z"/>
		<path class="st3" d="M428.2,223.1v-3.3h20.3v3.3l-9.3,0.9h-1.8L428.2,223.1z M452.1,256.2c5.6,0,8.9-3.7,8.9-13.1v-23.3h4.1v23.3
			c0,13.2-6.1,18.8-16.4,18.8c-9.2,0-15.9-4.5-15.9-16.6v-6.8c0-6.1,0-12.4-0.2-18.7h10.8c-0.2,6.1-0.2,12.4-0.2,18.7v4.8
			C443.3,252.8,446.2,256.2,452.1,256.2z M462,223.7l-6.6-0.6v-3.3h14.9v3.3l-6.4,0.6H462z"/>
		<path class="st3" d="M506.3,254.8v3.2l-4.2,0.9l2.1-9.8h4.7l-0.2,9.6c-3.3,1.8-7.7,3.2-13.1,3.2c-12,0-21.6-7.1-21.6-21.6
			c0-14.7,10.4-21.6,22.1-21.6c4.7,0,8.5,1.1,12.2,3.1l0.2,9.7h-4.7l-2.1-9.8l4.2,1v3.4c-3-2.7-5.5-3.8-8.3-3.8
			c-6.7,0-12.5,5.4-12.5,18.1c0,12.7,5.6,18,12.2,18C500.3,258.3,503.3,257,506.3,254.8z"/>
		<path class="st3" d="M511.2,257.3l6.4-0.9h1.1l5.9,0.9v3.3h-13.4V257.3z M528.8,219.7h6.4l14,41h-10.6L528,227.3l2.3-3.1
			l-11.9,36.6h-3.7L528.8,219.7z M522.1,245.2H539l1.4,3.6h-19.3L522.1,245.2z M532.6,257.5l7-0.9h4.2l8,0.9v3.2h-19.2V257.5z"/>
		<path class="st3" d="M587,254.8v3.2l-4.2,0.9l2.1-9.8h4.7l-0.2,9.6c-3.3,1.8-7.7,3.2-13.1,3.2c-12,0-21.6-7.1-21.6-21.6
			c0-14.7,10.4-21.6,22.1-21.6c4.7,0,8.5,1.1,12.2,3.1l0.2,9.7h-4.7l-2.1-9.8l4.2,1v3.4c-3-2.7-5.5-3.8-8.3-3.8
			c-6.7,0-12.5,5.4-12.5,18.1c0,12.7,5.6,18,12.2,18C581.1,258.3,584.1,257,587,254.8z"/>
		<path class="st3" d="M593.4,223.1v-3.3h20.1v3.3l-9.2,0.9h-1.8L593.4,223.1z M604.3,256.4l9.2,0.9v3.3h-20.1v-3.3l9-0.9H604.3z
			 M598.2,239.1c0-6.4,0-12.9-0.2-19.3h10.8c-0.2,6.3-0.2,12.8-0.2,19.3v2.3c0,6.5,0,12.9,0.2,19.3H598c0.2-6.3,0.2-12.8,0.2-19.3
			V239.1z"/>
		<path class="st3" d="M657.1,240.2c0,14.4-9.5,21.6-19.8,21.6c-10.3,0-19.8-7.1-19.8-21.6c0-14.4,9.6-21.6,19.8-21.6
			C647.6,218.6,657.1,225.7,657.1,240.2z M637.4,258.2c6.3,0,8.7-7.7,8.7-18c0-10.3-2.5-18-8.7-18c-6.3,0-8.7,7.8-8.7,18
			C628.6,250.6,631.1,258.2,637.4,258.2z"/>
		<path class="st3" d="M661,257.3l6.6-0.9h1.8l8,0.9v3.3H661V257.3z M664.2,222l3.6,1.8l-6.8-0.6v-3.4h14.1l22.3,30.7v10.4h-5.3
			L664.2,222z M666.3,219.8l4,3.4v37.5h-4V219.8z M686.3,219.8h16.4v3.3l-6.3,0.9h-1.7l-8.4-0.9V219.8z M693.5,219.8h4v41l-4-4
			V219.8z"/>
	</g>
</g>
</svg>
